<svg id="_260_bug_fixing_flatline" data-name="#260_bug_fixing_flatline" xmlns="http://www.w3.org/2000/svg" viewBox="0 0 400 300" width="247.20000000000002" height="185.4" class="illustration styles_illustrationTablet__1DWOa"><path d="M355.82,214.12H44.18a.5.5,0,0,1-.5-.5.5.5,0,0,1,.5-.5H355.82a.5.5,0,0,1,.5.5A.5.5,0,0,1,355.82,214.12Z" fill="#e6e7e8"></path><path d="M355.82,43V191.44a10.39,10.39,0,0,1-10.39,10.39H126.59a10.39,10.39,0,0,1-10.39-10.39V43A10.39,10.39,0,0,1,126.59,32.6H345.43A10.38,10.38,0,0,1,355.82,43Z" fill="#fff"></path><path d="M345.43,202.29H126.59a10.87,10.87,0,0,1-10.85-10.85V43a10.87,10.87,0,0,1,10.85-10.85H345.43A10.87,10.87,0,0,1,356.28,43V191.44A10.87,10.87,0,0,1,345.43,202.29ZM126.59,33.05A9.94,9.94,0,0,0,116.66,43V191.44a9.94,9.94,0,0,0,9.93,9.93H345.43a9.94,9.94,0,0,0,9.94-9.93V43a10,10,0,0,0-9.94-9.94Z" fill="#231f20"></path><path d="M355.82,43V174.81H116.2V43A10.39,10.39,0,0,1,126.59,32.6H345.43A10.38,10.38,0,0,1,355.82,43Z" fill="#231f20"></path><rect x="126.04" y="44.93" width="217.1" height="120.07" fill="#e6e7e8"></rect><path d="M233.05,193.79a5.48,5.48,0,1,1,5.47-5.48A5.49,5.49,0,0,1,233.05,193.79Zm0-9.95a4.48,4.48,0,1,0,4.47,4.47A4.48,4.48,0,0,0,233.05,183.84Z" fill="#d1d3d4"></path><path d="M264.31,220.67c-2.3-3.38-2.69-18.84-2.69-18.84H210.39s-.38,15.46-2.69,18.84-11.33,8.88-11.33,10.84,1.34,2.66,7.88,2.66h63.52c6.53,0,7.88-.71,7.88-2.66S266.62,224,264.31,220.67Z" fill="#fff"></path><path d="M267.77,234.63H204.25c-6.47,0-8.34-.7-8.34-3.12,0-1.2,2.07-2.92,5.45-5.62,2.42-1.95,4.92-3.95,6-5.48,2.2-3.23,2.6-18.44,2.61-18.59a.45.45,0,0,1,.45-.45h51.23a.46.46,0,0,1,.46.45c0,.15.41,15.36,2.61,18.59h0c1,1.53,3.55,3.53,6,5.48,3.38,2.7,5.44,4.42,5.44,5.62C276.1,233.93,274.24,234.63,267.77,234.63Zm-56.93-32.34c-.09,2.61-.6,15.47-2.76,18.63-1.12,1.64-3.68,3.7-6.15,5.68-2.27,1.82-5.1,4.09-5.1,4.91,0,1.33.51,2.21,7.42,2.21h63.52c6.9,0,7.42-.88,7.42-2.21,0-.82-2.83-3.09-5.1-4.91-2.48-2-5-4-6.15-5.68h0c-2.16-3.16-2.68-16-2.76-18.63Z" fill="#231f20"></path><path d="M260.72,218.5H211.3a.5.5,0,0,1,0-1h49.42a.5.5,0,0,1,0,1Z" fill="#d1d3d4"></path><path d="M74.36,163.33s-1.14,47-5.82,51-12.22,20-12.22,20L72.14,243s18.06-18.27,20-24.72,0-49.51,0-49.51L77,167.11" fill="#231f20"></path><path d="M72.14,243.53a.53.53,0,0,1-.24-.06l-15.82-8.73a.5.5,0,0,1-.21-.65c.31-.66,7.64-16.13,12.35-20.13,3.7-3.13,5.33-37.62,5.65-50.64a.48.48,0,0,1,.51-.48.49.49,0,0,1,.48.51c0,1.93-1.2,47.31-6,51.37-4.12,3.5-10.66,16.83-11.89,19.37l15.08,8.32c2.24-2.28,17.86-18.41,19.58-24.24s.19-44.43,0-48.93L77,167.6a.5.5,0,0,1-.44-.55.5.5,0,0,1,.55-.44l15.08,1.69a.51.51,0,0,1,.45.47c.07,1.77,1.88,43.24,0,49.69S73.24,242.63,72.5,243.38A.51.51,0,0,1,72.14,243.53Z" fill="#231f20"></path><path d="M86.13,240.28c-.74,1,0,26.11,0,26.11l27.81,1s-4.48-10.14-14.07-9.88V238.37Z" fill="#231f20"></path><path d="M113.94,267.9h0l-27.81-1a.5.5,0,0,1-.48-.49c-.22-7.59-.66-25.37.1-26.41a.5.5,0,0,1,.33-.2l13.74-1.92a.56.56,0,0,1,.4.12.49.49,0,0,1,.17.38V257c9.46.1,14,10.08,14,10.18a.49.49,0,0,1-.05.48A.48.48,0,0,1,113.94,267.9Zm-27.32-2,26.5,1c-1.22-2.25-5.46-8.87-12.9-8.87h-.34a.62.62,0,0,1-.36-.14.55.55,0,0,1-.15-.36V238.94l-12.86,1.79C86.12,242.85,86.35,256.88,86.62,265.91Z" fill="#231f20"></path><path d="M63.11,228.67c-1.22.36-16.22,20.65-16.22,20.65l21.38,17.56s2.75-10.72-5-16.3l11.9-15.15Z" fill="#231f20"></path><path d="M68.27,267.38a.52.52,0,0,1-.32-.11L46.58,249.71a.5.5,0,0,1-.09-.68C51,242.88,61.73,228.56,63,228.19a.46.46,0,0,1,.38.05L75.41,235a.49.49,0,0,1,.15.74L64,250.49c7.42,5.79,4.8,16.41,4.77,16.51a.49.49,0,0,1-.33.35ZM47.58,249.24,67.94,266c.43-2.53,1.23-10.53-5-15a.5.5,0,0,1-.2-.34.49.49,0,0,1,.1-.37l11.54-14.7-11.29-6.33C61.52,230.67,53,241.92,47.58,249.24Z" fill="#231f20"></path><path d="M143.62,148.74h1.73l2.32-7.86H131.91l-5.32,7.85h11.24c5.47,0,11,1.22,15.55-2.84a3.65,3.65,0,0,0,1.45-2.8c-.13-1.56-1.78-2.51-3.29-3a17.09,17.09,0,0,0-4.26-.76" fill="#fff"></path><path d="M143.94,149.41c-1,0-2,0-3-.09s-2-.08-3.07-.08H126.59a.48.48,0,0,1-.44-.27.49.49,0,0,1,0-.51l5.33-7.85a.49.49,0,0,1,.41-.22h15.76a.54.54,0,0,1,.4.2.53.53,0,0,1,.08.44L146,148.34a11.32,11.32,0,0,0,7.06-2.82,3.22,3.22,0,0,0,1.28-2.39c-.12-1.5-2.1-2.27-2.94-2.54a17,17,0,0,0-4.14-.73.51.51,0,0,1-.47-.53.46.46,0,0,1,.53-.47,18.15,18.15,0,0,1,4.38.78c2.19.68,3.52,1.92,3.63,3.42a4.13,4.13,0,0,1-1.6,3.21C150.77,148.92,147.37,149.41,143.94,149.41Zm-16.41-1.17h10.3c1,0,2.08,0,3.12.09.77,0,1.54.06,2.3.07a.49.49,0,0,1,.37-.16H145l2-6.86H132.18Z" fill="#231f20"></path><path d="M136.45,138.72l-4.22,11.41A73.08,73.08,0,0,1,110,147.48c-7.92-2.11-23.88-19.15-23.88-19.15l9.72-13.24s11.08,15.7,15.41,17.9C119.7,137.27,136.45,138.72,136.45,138.72Z" fill="#68e1fd"></path><path d="M74.36,163.33c0,1.27,8.46,85.67,8.46,85.67H103l-2.18-92.85Z" fill="#231f20"></path><path d="M103,249.5H82.82a.5.5,0,0,1-.5-.45c-.34-3.44-8.49-84.44-8.45-85.73a.49.49,0,0,1,.36-.47l26.49-7.18a.5.5,0,0,1,.43.08.52.52,0,0,1,.2.39L103.53,249a.51.51,0,0,1-.14.36A.49.49,0,0,1,103,249.5Zm-19.76-1h19.25l-2.15-91.71-25.49,6.91C75.27,168.69,80.45,220.44,83.27,248.51Z" fill="#231f20"></path><path d="M80.14,104.83a5.41,5.41,0,0,1-2.88,0,1.67,1.67,0,0,1-.84-.47.71.71,0,0,1-.06-.89c.36-.41,1.2-.21,1.42-.7-2.45-2.29-3.83-6.24-4.09-9.48a22.39,22.39,0,0,1,2.09-11.15A6.39,6.39,0,0,1,78,79.24a2.9,2.9,0,0,1,3.41.21,5.17,5.17,0,0,1,4-2.5,12.33,12.33,0,0,1,4.16.67c3.11.9,6.5,2.08,8.07,4.88a10.38,10.38,0,0,1,1,3.13c.29,1.45.86,4.08-.33,5.26-1,1-3.24.85-4.44,2s-2.18,3.17-3.36,4.6a18.1,18.1,0,0,1-7,5.29c-1,.42-1.25,1-2.13,1.47A5.2,5.2,0,0,1,80.14,104.83Z" fill="#fff"></path><path d="M78.72,105.52a5.78,5.78,0,0,1-1.6-.23,2.16,2.16,0,0,1-1.09-.63,1.2,1.2,0,0,1,0-1.54,1.61,1.61,0,0,1,1-.47h0a16.42,16.42,0,0,1-3.78-9.34,22.8,22.8,0,0,1,2.13-11.4,6.92,6.92,0,0,1,2.44-3.09,3.43,3.43,0,0,1,3.57-.07,5.5,5.5,0,0,1,4-2.3,12.63,12.63,0,0,1,4.33.69c3.17.91,6.69,2.13,8.36,5.11a10.91,10.91,0,0,1,1.09,3.28l0,.13c.32,1.59.85,4.25-.49,5.59a5.09,5.09,0,0,1-2.29,1,4.93,4.93,0,0,0-2.16,1,16.15,16.15,0,0,0-1.91,2.55,22.07,22.07,0,0,1-1.41,2,18.59,18.59,0,0,1-7.15,5.43,3.81,3.81,0,0,0-1.12.73,5.72,5.72,0,0,1-.94.71,5.92,5.92,0,0,1-1.44.6h0A5.85,5.85,0,0,1,78.72,105.52Zm1.42-.69h0Zm-.51-25.55a2.6,2.6,0,0,0-1.35.39,6,6,0,0,0-2,2.67,21.68,21.68,0,0,0-2,10.89c.22,2.73,1.38,6.76,3.93,9.15a.51.51,0,0,1,.12.57,1.34,1.34,0,0,1-1.07.68,1.06,1.06,0,0,0-.43.15.25.25,0,0,0,.06.24,1.28,1.28,0,0,0,.6.31,4.92,4.92,0,0,0,2.61,0h0a5.45,5.45,0,0,0,1.19-.5,5.37,5.37,0,0,0,.8-.6,4.57,4.57,0,0,1,1.39-.91,17.47,17.47,0,0,0,6.76-5.13,22.73,22.73,0,0,0,1.34-1.93,16.29,16.29,0,0,1,2.05-2.72,5.67,5.67,0,0,1,2.6-1.22,4.36,4.36,0,0,0,1.84-.8c1-1,.48-3.38.22-4.68l0-.13a9.89,9.89,0,0,0-1-3C95.7,80.09,92.4,79,89.42,78.1a11.58,11.58,0,0,0-4-.65,4.61,4.61,0,0,0-3.6,2.29.51.51,0,0,1-.35.2.47.47,0,0,1-.39-.12A2.21,2.21,0,0,0,79.63,79.28Z" fill="#231f20"></path><path d="M97.52,92.9s3.47,5,2.79,6-3,.42-3,.42" fill="#fff"></path><path d="M98.72,100a6.21,6.21,0,0,1-1.56-.21.5.5,0,0,1,.26-1c.65.17,2.1.35,2.47-.21.21-.49-1.09-3-2.78-5.47a.5.5,0,1,1,.82-.57c1.37,1.95,3.55,5.41,2.8,6.58A2.27,2.27,0,0,1,98.72,100Z" fill="#231f20"></path><path d="M96.68,86.26c2.18,1.68,1.62,5.36,1.64,7.74,0,3.34,0,6.69-.13,10-.08,2.12-5.65,2.3-6.64,1.68l.63,7s-1.23,3.91-5.77,2-5.63-4.76-5.63-4.76l.2-9.68s3.68-.06,5.78-4.43,1.89-11,1.89-11S94.55,84.62,96.68,86.26Z" fill="#fff"></path><path d="M88.75,115.73a6.29,6.29,0,0,1-2.53-.59c-4.68-2-5.86-4.91-5.91-5a.58.58,0,0,1,0-.19l.2-9.68a.49.49,0,0,1,.49-.49c.14,0,3.41-.13,5.34-4.15,2-4.21,1.85-10.72,1.84-10.78a.51.51,0,0,1,.14-.36.48.48,0,0,1,.35-.16c.25,0,6.1-.16,8.35,1.57h0c2,1.56,1.93,4.49,1.86,6.85,0,.45,0,.88,0,1.28,0,3.34,0,6.73-.14,10.07a2,2,0,0,1-1.24,1.69,9.77,9.77,0,0,1-5.34.67l.57,6.26a.44.44,0,0,1,0,.2,4.42,4.42,0,0,1-2.21,2.49A4,4,0,0,1,88.75,115.73Zm-7.47-5.91c.22.45,1.49,2.75,5.33,4.4a4.15,4.15,0,0,0,3.42.24,3.4,3.4,0,0,0,1.65-1.8l-.63-6.89a.49.49,0,0,1,.23-.47.51.51,0,0,1,.53,0,8.3,8.3,0,0,0,5.17-.43c.46-.25.7-.53.71-.85.12-3.32.17-6.69.14-10,0-.41,0-.85,0-1.32.06-2.13.14-4.78-1.48-6S91,85.25,89.16,85.28c0,1.66-.13,7-2,10.74a7.73,7.73,0,0,1-5.74,4.67Z" fill="#231f20"></path><path d="M98.06,101.55s-2.6,1.65-4-1" fill="#fff"></path><path d="M96.3,102.56a2.74,2.74,0,0,1-.74-.1,3.14,3.14,0,0,1-2-1.67.5.5,0,0,1,.88-.48,2.24,2.24,0,0,0,1.35,1.19,2.92,2.92,0,0,0,2-.38.51.51,0,0,1,.69.16.5.5,0,0,1-.16.69A4.12,4.12,0,0,1,96.3,102.56Z" fill="#231f20"></path><path d="M91.05,95.2a4.5,4.5,0,0,0-1-2.28,6.39,6.39,0,0,0-1.25-1.49A2.23,2.23,0,0,0,87,90.92,2.1,2.1,0,0,0,85.64,92a3.83,3.83,0,0,0-.39,1.67A7.09,7.09,0,0,0,88.72,100l-.19-.19" fill="#fff"></path><path d="M88.72,100.46a.59.59,0,0,1-.25-.07,7.66,7.66,0,0,1-3.72-6.75,4.39,4.39,0,0,1,.45-1.89,2.6,2.6,0,0,1,1.64-1.32,2.74,2.74,0,0,1,2.27.61,7,7,0,0,1,1.36,1.6,5,5,0,0,1,1.08,2.54.51.51,0,0,1-.49.52.5.5,0,0,1-.51-.49,4.15,4.15,0,0,0-.91-2,6.16,6.16,0,0,0-1.15-1.38,1.75,1.75,0,0,0-1.42-.41,1.58,1.58,0,0,0-1,.82,3.27,3.27,0,0,0-.33,1.45,6.63,6.63,0,0,0,2.81,5.58.53.53,0,0,1,.33.15l.19.2a.49.49,0,0,1,0,.65A.51.51,0,0,1,88.72,100.46Z" fill="#231f20"></path><path d="M91.55,105.72A9,9,0,0,1,87.26,103s.28,5.09,4.74,6.47Z" fill="#231f20"></path><path d="M92,110l-.15,0c-4.73-1.46-5.09-6.87-5.09-6.92a.5.5,0,0,1,.33-.5.51.51,0,0,1,.58.18,8.6,8.6,0,0,0,4,2.55.49.49,0,0,1,.36.42l.45,3.73A.5.5,0,0,1,92,110Zm-4-5.45a6.35,6.35,0,0,0,3.35,4.19l-.31-2.59A10.57,10.57,0,0,1,88.05,104.5Z" fill="#231f20"></path><ellipse cx="95.54" cy="90.63" rx="1.2" ry="0.48" transform="translate(-8.66 171.15) rotate(-81.18)" fill="#231f20"></ellipse><path d="M80.71,106.5s12.86,2.71,16.92,10.42,7.8,52.57,7.64,53.05-34.82.8-34.82.8,1.07-6.2-1.18-17.78S69.78,105.51,80.71,106.5Z" fill="#68e1fd"></path><path d="M58.62,106.32h3.9A9.63,9.63,0,0,1,72.14,116v44.86a0,0,0,0,1,0,0H49a0,0,0,0,1,0,0V116A9.63,9.63,0,0,1,58.62,106.32Z" fill="#231f20"></path><path d="M72.14,161.31H49a.49.49,0,0,1-.49-.49V116a10.14,10.14,0,0,1,10.13-10.13h3.89A10.14,10.14,0,0,1,72.64,116v44.86A.49.49,0,0,1,72.14,161.31Zm-22.66-1H71.65V116a9.15,9.15,0,0,0-9.14-9.14H58.62A9.15,9.15,0,0,0,49.48,116Z" fill="#231f20"></path><rect x="47.44" y="152.71" width="25.86" height="11.98" rx="2.56" fill="#fff"></rect><path d="M70.75,165.19H50a3.07,3.07,0,0,1-3.06-3.06v-6.86A3.06,3.06,0,0,1,50,152.21H70.75a3.06,3.06,0,0,1,3,3.06v6.86A3.06,3.06,0,0,1,70.75,165.19ZM50,153.21a2.06,2.06,0,0,0-2.06,2.06v6.86A2.06,2.06,0,0,0,50,164.19H70.75a2.06,2.06,0,0,0,2-2.06v-6.86a2.05,2.05,0,0,0-2-2.06Z" fill="#231f20"></path><rect x="47.44" y="131.58" width="25.86" height="3.99" rx="1.99" fill="#fff"></rect><path d="M71.31,136.06H49.43a2.49,2.49,0,1,1,0-5H71.31a2.49,2.49,0,1,1,0,5Zm-21.88-4a1.49,1.49,0,1,0,0,3H71.31a1.49,1.49,0,1,0,0-3Z" fill="#231f20"></path><rect x="58.89" y="101.51" width="3.35" height="4.82" fill="#231f20"></rect><path d="M62.24,106.82H58.89a.5.5,0,0,1-.5-.5v-4.81a.5.5,0,0,1,.5-.5h3.35a.5.5,0,0,1,.5.5v4.81A.5.5,0,0,1,62.24,106.82Zm-2.85-1h2.35V102H59.39Z" fill="#231f20"></path><rect x="52.75" y="103.52" width="15.63" height="4.46" rx="1.14" fill="#fff"></rect><path d="M67.24,108.48H53.89a1.64,1.64,0,0,1-1.64-1.64v-2.18A1.65,1.65,0,0,1,53.89,103H67.24a1.65,1.65,0,0,1,1.64,1.64v2.18A1.64,1.64,0,0,1,67.24,108.48ZM53.89,104a.64.64,0,0,0-.64.64v2.18a.64.64,0,0,0,.64.64H67.24a.64.64,0,0,0,.64-.64v-2.18a.64.64,0,0,0-.64-.64Z" fill="#231f20"></path><rect x="56.32" y="98.91" width="8.49" height="2.59" fill="#fff"></rect><path d="M64.81,102H56.32a.5.5,0,0,1-.5-.5v-2.6a.5.5,0,0,1,.5-.5h8.49a.5.5,0,0,1,.5.5v2.6A.5.5,0,0,1,64.81,102Zm-8-1h7.49v-1.6H56.82Z" fill="#231f20"></path><path d="M68.38,112.47s17.25-.25,23.73,6.09,9,29.27-20,30.79v2.41S87,152.87,94,143.27s7.52-17,2.31-24.84-22.22-9.25-27.91-8.49Z" fill="#231f20"></path><path d="M73.7,152.3c-.91,0-1.48,0-1.59-.05a.49.49,0,0,1-.46-.49v-2.41a.5.5,0,0,1,.47-.5c15.06-.79,20.59-7.23,22.58-12.5,2.48-6.57.41-14.17-2.94-17.44-6.25-6.12-23.2-6-23.37-5.94a.65.65,0,0,1-.36-.14.55.55,0,0,1-.15-.36v-2.53a.5.5,0,0,1,.44-.49c5.91-.79,23,.64,28.39,8.7s4.72,15.77-2.33,25.41C88.58,151.51,77.77,152.3,73.7,152.3Zm-1.06-1c2.54.09,14.86,0,20.94-8.31,6.76-9.25,7.45-16.51,2.3-24.27-4.91-7.4-21-8.93-27-8.32V112c3,0,17.58.36,23.58,6.23,3.57,3.49,5.79,11.56,3.17,18.5-2.07,5.49-7.75,12.19-23,13.12Z" fill="#231f20"></path><polygon points="120.24 168.36 117.09 164.35 152.06 137.63 155.21 141.63 120.24 168.36" fill="#fff"></polygon><path d="M120.24,168.86a.52.52,0,0,1-.39-.19l-3.15-4a.5.5,0,0,1-.11-.37.5.5,0,0,1,.2-.33l35-26.73a.51.51,0,0,1,.7.09l3.16,4a.48.48,0,0,1,.1.37.53.53,0,0,1-.19.33l-35,26.73A.5.5,0,0,1,120.24,168.86Zm-2.44-4.42,2.53,3.22,34.18-26.11L152,138.33Z" fill="#231f20"></path><polygon points="155.05 139.67 153.95 138.27 169.52 126.67 170.62 128.06 155.05 139.67" fill="#fff"></polygon><path d="M155.05,140.17a.51.51,0,0,1-.39-.19l-1.1-1.4a.49.49,0,0,1-.1-.37.46.46,0,0,1,.19-.34l15.57-11.6a.49.49,0,0,1,.69.09l1.1,1.39a.52.52,0,0,1,.1.38.53.53,0,0,1-.19.33l-15.57,11.61A.47.47,0,0,1,155.05,140.17Zm-.39-1.8.48.61,14.77-11-.49-.61Z" fill="#231f20"></path><polygon points="120.81 169.09 116.52 163.63 114.27 165.34 118.57 170.8 120.81 169.09" fill="#231f20"></polygon><path d="M118.57,171.3a.51.51,0,0,1-.39-.19l-4.3-5.46a.48.48,0,0,1-.1-.37A.45.45,0,0,1,114,165l2.24-1.72a.51.51,0,0,1,.7.09l4.3,5.46a.48.48,0,0,1,.1.37.53.53,0,0,1-.19.33l-2.25,1.72A.49.49,0,0,1,118.57,171.3Zm-3.6-5.87,3.69,4.68,1.45-1.11-3.68-4.68Z" fill="#231f20"></path><polygon points="118.24 170.39 114.6 165.76 109.64 169.55 113.29 174.17 118.24 170.39" fill="#fff"></polygon><path d="M113.29,174.67a.5.5,0,0,1-.4-.19l-3.64-4.62a.51.51,0,0,1-.1-.38.49.49,0,0,1,.19-.33l5-3.79a.51.51,0,0,1,.7.09l3.64,4.63a.5.5,0,0,1,.11.37.5.5,0,0,1-.2.33l-5,3.79A.49.49,0,0,1,113.29,174.67Zm-2.94-5,3,3.83,4.15-3.17-3-3.84Z" fill="#231f20"></path><polygon points="112.33 172.95 110.61 170.77 107.69 172.99 109.41 175.18 112.33 172.95" fill="#fff"></polygon><path d="M109.41,175.68a.51.51,0,0,1-.39-.19l-1.72-2.19a.49.49,0,0,1-.1-.37.45.45,0,0,1,.19-.33l2.91-2.23a.5.5,0,0,1,.7.09l1.72,2.18a.5.5,0,0,1,.1.37.46.46,0,0,1-.19.34l-2.91,2.23A.52.52,0,0,1,109.41,175.68Zm-1-2.6,1.1,1.4,2.12-1.62-1.1-1.4Z" fill="#231f20"></path><polygon points="158.1 140.59 153.81 135.13 151.56 136.85 155.86 142.31 158.1 140.59" fill="#231f20"></polygon><path d="M155.86,142.8a.47.47,0,0,1-.39-.19l-4.3-5.45a.5.5,0,0,1-.1-.37.46.46,0,0,1,.19-.34l2.24-1.71a.5.5,0,0,1,.7.08l4.3,5.46a.49.49,0,0,1,.1.37.53.53,0,0,1-.19.33l-2.25,1.72A.49.49,0,0,1,155.86,142.8Zm-3.6-5.86,3.69,4.67,1.45-1.11-3.68-4.68Z" fill="#231f20"></path><polygon points="171.3 128.62 169.14 125.88 172.59 122.39 175.58 126.2 171.3 128.62" fill="#fff"></polygon><path d="M171.3,129.12a.49.49,0,0,1-.39-.19l-2.16-2.74a.49.49,0,0,1,0-.66l3.44-3.49a.5.5,0,0,1,.38-.15.52.52,0,0,1,.37.19l3,3.81a.45.45,0,0,1,.1.4.48.48,0,0,1-.24.34l-4.28,2.42A.47.47,0,0,1,171.3,129.12Zm-1.49-3.2,1.62,2,3.4-1.92-2.29-2.9Z" fill="#231f20"></path><path d="M151.81,143a4.72,4.72,0,0,0-1.12-2.2,3.27,3.27,0,0,0-4.62-.76c-2.76,1.49-4.17,4.62-4.82,7.66a2.77,2.77,0,0,0,0,1.8c1,2,4.7,1.13,6.26.4C149.93,148.77,152.29,145.75,151.81,143Z" fill="#fff"></path><path d="M143.91,151.22a3.17,3.17,0,0,1-3.07-1.5,3.26,3.26,0,0,1-.08-2.13c.58-2.7,1.92-6.29,5.08-8a4.31,4.31,0,0,1,3.64-.4,4.26,4.26,0,0,1,1.6,1.28,5.3,5.3,0,0,1,1.23,2.43h0c.5,2.93-1.94,6.21-4.54,7.44A10.09,10.09,0,0,1,143.91,151.22ZM148.19,140a4,4,0,0,0-1.88.53c-2.81,1.52-4,4.82-4.57,7.32a2.41,2.41,0,0,0,0,1.48c.74,1.52,4,.92,5.6.16,2.27-1.07,4.41-3.88,4-6.36h0a4.29,4.29,0,0,0-1-2,3.25,3.25,0,0,0-1.22-1A2.37,2.37,0,0,0,148.19,140Z" fill="#231f20"></path><path d="M118.14,155.72a11,11,0,0,1,1.18.18c1.78.48,3.52.9,5.33.09a11.91,11.91,0,0,0,1.73-1.08,16.13,16.13,0,0,1,6.16-2.46,6.57,6.57,0,0,0-.57,2.62c2.06.38,3.82,1,5.93.92.42,0,.92,0,1.17.32a1,1,0,0,1,.14.6,4.94,4.94,0,0,1-1.49,3.11c-6.66,6.57-17,5.13-25.58,3.75-.32-.05-.69-.14-.83-.43a1,1,0,0,1,0-.64l1.75-7.53S116.31,155.48,118.14,155.72Z" fill="#fff"></path><path d="M123.34,165.44a70.44,70.44,0,0,1-11.28-1.18,1.48,1.48,0,0,1-1.2-.71,1.45,1.45,0,0,1,0-1l1.75-7.53c.1-.54.1-.55,5.62.16h0a12.49,12.49,0,0,1,1.25.19c1.85.51,3.39.84,5,.12a7.83,7.83,0,0,0,1.28-.78l.38-.26a16.72,16.72,0,0,1,6.35-2.53.49.49,0,0,1,.48.18.5.5,0,0,1,.06.51,6.06,6.06,0,0,0-.5,2l1.3.29a14,14,0,0,0,4.08.54,1.73,1.73,0,0,1,1.6.53,1.46,1.46,0,0,1,.24.89,5.34,5.34,0,0,1-1.61,3.45C134.07,164.32,128.66,165.44,123.34,165.44Zm-9.88-9.74-1.66,7.12a.62.62,0,0,0,0,.31s0,.08.45.15c9.73,1.57,19,2.48,25.15-3.61a4.35,4.35,0,0,0,1.34-2.77.58.58,0,0,0-.05-.3c-.1-.15-.58-.12-.74-.11a14.86,14.86,0,0,1-4.36-.56c-.55-.13-1.1-.26-1.68-.37a.5.5,0,0,1-.41-.5,6.76,6.76,0,0,1,.29-1.94,15.56,15.56,0,0,0-5.1,2.21l-.37.25a10.15,10.15,0,0,1-1.44.86c-2,.93-4,.38-5.66-.06,0,0-.23,0-1.12-.17h0C116.61,156,114.36,155.78,113.46,155.7Z" fill="#231f20"></path><path d="M88.7,121.11c.24.42,10.36,26.62,10.36,26.62l20.64,4.69-1.62,13.65s-15.58.1-29-3.15c-9.9-2.4-15.71-39.68-14.79-43.34S85.34,115.29,88.7,121.11Z" fill="#68e1fd"></path><path d="M89.65,234.06a24.79,24.79,0,0,1-3.42-.24c-5.56-.78-13.22-3.95-18.14-14.6-5.13-11.1-5.18-26.75-4.32-37.92a168.66,168.66,0,0,1,3.12-21.78.5.5,0,0,1,.6-.38.51.51,0,0,1,.38.6c-.09.38-8.54,38.17,1.13,59.06,4.73,10.24,12.06,13.28,17.37,14,8.69,1.23,17.49-2.85,21.35-7.31,4.83-5.58,2.46-12.12.17-18.45-.66-1.83-1.34-3.72-1.82-5.52-2.87-10.82-2.24-19.65,2-27.79a.51.51,0,0,1,.68-.21.5.5,0,0,1,.21.67c-4.08,7.91-4.68,16.51-1.88,27.07.46,1.76,1.11,3.55,1.79,5.44,2.39,6.6,4.86,13.42-.35,19.44C104.86,230.35,97.54,234.06,89.65,234.06Z" fill="#231f20"></path><path d="M82.43,232.9a.49.49,0,0,1-.49-.45l-5.21-58a.48.48,0,0,1,.45-.54.5.5,0,0,1,.54.45l5.21,58a.51.51,0,0,1-.45.54Z" fill="#fff"></path><path d="M91.7,234.38a31.88,31.88,0,0,1-6.46-.72,24.08,24.08,0,0,1-16.61-13.34.5.5,0,1,1,.92-.37,23.06,23.06,0,0,0,15.89,12.73c11.54,2.41,15.72-2.27,15.76-2.32a.5.5,0,0,1,.7-.06.49.49,0,0,1,.06.7C101.82,231.17,99,234.38,91.7,234.38Z" fill="#fff"></path><path d="M110,166.57h0c-.8,0-19.69-.33-24.18-3.81S74,129,73.71,127.69a.49.49,0,0,1,.37-.6.5.5,0,0,1,.6.37c2.59,10.79,8.38,31.89,11.76,34.51,4.22,3.28,23.38,3.6,23.58,3.6a.5.5,0,0,1,0,1Z" fill="#231f20"></path><path d="M112.25,151.23h-.1c-.44-.1-10.68-2.24-13.21-4s-8.24-22.15-8.88-24.47a.49.49,0,0,1,.35-.61.5.5,0,0,1,.61.35c2.38,8.62,6.79,22.74,8.49,23.91,2.37,1.63,12.74,3.8,12.84,3.83a.49.49,0,0,1,.39.59A.51.51,0,0,1,112.25,151.23Z" fill="#231f20"></path><path d="M177.67,119a.4.4,0,0,1-.24-.07.45.45,0,0,1-.15-.63L191.7,95.43a.46.46,0,0,1,.63-.15.47.47,0,0,1,.14.63l-14.41,22.92A.46.46,0,0,1,177.67,119Z" fill="#231f20"></path><path d="M179.8,125.93a.45.45,0,0,1-.45-.4.46.46,0,0,1,.4-.51l31.5-3.63a.45.45,0,0,1,.1.9l-31.5,3.64Z" fill="#231f20"></path><path d="M224,260.29c0,3.39-5.21,6.13-11.65,6.13s-11.65-2.74-11.65-6.13Z" fill="#fff"></path><path d="M212.37,266.88c-6.79,0-12.1-2.89-12.1-6.59a.46.46,0,0,1,.45-.46H224a.47.47,0,0,1,.46.46C224.48,264,219.16,266.88,212.37,266.88Zm-11.15-6.13c.47,2.87,5.39,5.22,11.15,5.22s10.68-2.35,11.16-5.22Z" fill="#231f20"></path><path d="M216.66,260.75a.48.48,0,0,1-.29-.11.46.46,0,0,1-.06-.64s1.57-2,.95-6.59a.46.46,0,1,1,.91-.12c.67,5.06-1.08,7.21-1.16,7.3A.48.48,0,0,1,216.66,260.75Z" fill="#231f20"></path><path d="M206.15,260.75a.47.47,0,0,1-.32-.14c-.12-.12-3-3.06-3.67-6.18a.46.46,0,0,1,.35-.54.45.45,0,0,1,.54.35c.62,2.85,3.4,5.7,3.43,5.73a.46.46,0,0,1,0,.65A.44.44,0,0,1,206.15,260.75Z" fill="#231f20"></path><path d="M221.66,260.75a.46.46,0,0,1-.23-.06.47.47,0,0,1-.17-.63c.19-.33,1.91-3.23,3.73-3.38a1.83,1.83,0,0,1,1.62.74.45.45,0,0,1-.7.58.91.91,0,0,0-.84-.41c-1.14.1-2.6,2.2-3,2.93A.45.45,0,0,1,221.66,260.75Z" fill="#231f20"></path><path d="M202.61,260.75a.47.47,0,0,1-.37-.19c-.07-.08-1.6-2.12-3.79-1.42a.45.45,0,0,1-.57-.29.46.46,0,0,1,.29-.58c2.82-.9,4.72,1.64,4.8,1.75a.46.46,0,0,1-.09.64A.48.48,0,0,1,202.61,260.75Z" fill="#231f20"></path><path d="M210,260.29s.92,3.17,3.81,2.38a7.85,7.85,0,0,0,4.1-2.38Z" fill="#231f20"></path><path d="M212.88,263.26a3.72,3.72,0,0,1-3.35-2.84.46.46,0,0,1,.43-.59h7.91a.46.46,0,0,1,.41.26.49.49,0,0,1-.05.48,8.27,8.27,0,0,1-4.34,2.54A3.75,3.75,0,0,1,212.88,263.26Zm-2.24-2.51a2.51,2.51,0,0,0,3,1.48,8.64,8.64,0,0,0,3.07-1.48Z" fill="#231f20"></path><path d="M337.63,258.63c0,3.39-5.21,6.13-11.65,6.13s-11.65-2.74-11.65-6.13Z" fill="#fff"></path><path d="M326,265.22c-6.78,0-12.1-2.9-12.1-6.59a.46.46,0,0,1,.45-.46h23.3a.46.46,0,0,1,.46.46C338.09,262.32,332.77,265.22,326,265.22Zm-11.15-6.13c.47,2.87,5.39,5.21,11.15,5.21s10.68-2.34,11.16-5.21Z" fill="#231f20"></path><path d="M330.28,259.09a.48.48,0,0,1-.3-.11.45.45,0,0,1-.05-.64s1.56-2,.94-6.6a.46.46,0,0,1,.91-.12c.68,5.07-1.08,7.22-1.16,7.3A.42.42,0,0,1,330.28,259.09Z" fill="#231f20"></path><path d="M319.76,259.09a.47.47,0,0,1-.32-.14c-.12-.12-3-3.06-3.67-6.18a.45.45,0,0,1,.35-.54.44.44,0,0,1,.54.35c.62,2.85,3.4,5.7,3.43,5.73a.46.46,0,0,1-.33.78Z" fill="#231f20"></path><path d="M335.27,259.09A.46.46,0,0,1,335,259a.47.47,0,0,1-.17-.63c.19-.33,1.91-3.23,3.74-3.39a1.87,1.87,0,0,1,1.61.74.47.47,0,0,1-.06.65.46.46,0,0,1-.64-.06,1,1,0,0,0-.84-.42c-1.14.1-2.6,2.21-3,2.94A.45.45,0,0,1,335.27,259.09Z" fill="#231f20"></path><path d="M316.22,259.09a.47.47,0,0,1-.37-.19c-.07-.09-1.6-2.12-3.79-1.42a.45.45,0,0,1-.57-.29.46.46,0,0,1,.3-.58c2.81-.89,4.72,1.64,4.79,1.75a.45.45,0,0,1-.36.73Z" fill="#231f20"></path><path d="M323.58,258.63s.91,3.17,3.81,2.38a7.87,7.87,0,0,0,4.09-2.38Z" fill="#231f20"></path><path d="M326.5,261.6a3.73,3.73,0,0,1-3.36-2.84.44.44,0,0,1,.07-.4.45.45,0,0,1,.37-.19h7.9a.46.46,0,0,1,.41.26.45.45,0,0,1-.05.47,8.24,8.24,0,0,1-4.33,2.55A3.8,3.8,0,0,1,326.5,261.6Zm-2.24-2.51a2.5,2.5,0,0,0,3,1.48,8.58,8.58,0,0,0,3.06-1.48Z" fill="#231f20"></path><path d="M175.7,243.76h5.08a5.39,5.39,0,0,1-3.16,3.07,15.14,15.14,0,0,1-5.58,0Z" fill="#231f20"></path><path d="M175.17,247.57a20.06,20.06,0,0,1-3.21-.29.46.46,0,0,1-.36-.34.43.43,0,0,1,.15-.46l3.65-3.07a.48.48,0,0,1,.3-.11h5.08a.47.47,0,0,1,.43.62,5.85,5.85,0,0,1-3.46,3.35A9.91,9.91,0,0,1,175.17,247.57Zm-2-1a12.56,12.56,0,0,0,4.38-.13,4.56,4.56,0,0,0,2.54-2.17h-4.18Z" fill="#231f20"></path><path d="M152.4,243.76c0,3.39,5.21,6.13,11.65,6.13s11.65-2.74,11.65-6.13Z" fill="#fff"></path><path d="M164.05,250.35c-6.79,0-12.11-2.89-12.11-6.59a.47.47,0,0,1,.46-.46h23.3a.46.46,0,0,1,.45.46C176.15,247.46,170.84,250.35,164.05,250.35Zm-11.16-6.13c.48,2.87,5.39,5.22,11.16,5.22s10.68-2.35,11.15-5.22Z" fill="#231f20"></path><path d="M156.34,244.22A.48.48,0,0,1,156,244c-.27-.44-2.7-4.29-2.7-6.2a.46.46,0,1,1,.92,0c0,1.39,1.84,4.59,2.55,5.71a.45.45,0,0,1-.14.63A.42.42,0,0,1,156.34,244.22Z" fill="#231f20"></path><path d="M159.75,244.22a.46.46,0,0,1-.34-.16c-.08-.09-1.83-2.24-1.16-7.31a.46.46,0,0,1,.51-.39.48.48,0,0,1,.4.52c-.62,4.62.93,6.57,1,6.59a.46.46,0,0,1-.06.64A.48.48,0,0,1,159.75,244.22Z" fill="#231f20"></path><path d="M165.8,244.22a.48.48,0,0,1-.32-.13.47.47,0,0,1,0-.65s2.81-2.88,3.43-5.73a.46.46,0,1,1,.89.19c-.67,3.12-3.54,6.06-3.67,6.18A.43.43,0,0,1,165.8,244.22Z" fill="#231f20"></path><path d="M169.35,244.22a.46.46,0,0,1-.38-.2.45.45,0,0,1,.12-.63,26,26,0,0,0,5.27-5.06.46.46,0,0,1,.64-.11.45.45,0,0,1,.1.64,26.47,26.47,0,0,1-5.49,5.28A.5.5,0,0,1,169.35,244.22Z" fill="#231f20"></path><path d="M253.58,253.28h-5.09a5.39,5.39,0,0,0,3.16,3.07,15.14,15.14,0,0,0,5.58,0Z" fill="#231f20"></path><path d="M254.1,257.09a10,10,0,0,1-2.58-.3,5.84,5.84,0,0,1-3.45-3.34.42.42,0,0,1,.05-.42.44.44,0,0,1,.38-.2h5.08a.51.51,0,0,1,.29.1l3.66,3.07a.45.45,0,0,1,.14.47.44.44,0,0,1-.35.33A19.15,19.15,0,0,1,254.1,257.09Zm-4.87-3.35a4.56,4.56,0,0,0,2.54,2.17,12.38,12.38,0,0,0,4.39.13l-2.75-2.3Z" fill="#231f20"></path><path d="M276.88,253.28c0,3.39-5.22,6.14-11.65,6.14s-11.65-2.75-11.65-6.14Z" fill="#fff"></path><path d="M265.23,259.87c-6.79,0-12.11-2.89-12.11-6.58a.45.45,0,0,1,.46-.46h23.3a.45.45,0,0,1,.45.46C277.33,257,272,259.87,265.23,259.87Zm-11.16-6.13c.48,2.87,5.39,5.22,11.16,5.22s10.67-2.35,11.15-5.22Z" fill="#231f20"></path><path d="M272.93,253.74a.42.42,0,0,1-.24-.07.46.46,0,0,1-.14-.63c.71-1.12,2.55-4.31,2.55-5.71a.46.46,0,0,1,.92,0c0,1.92-2.43,5.77-2.7,6.2A.46.46,0,0,1,272.93,253.74Z" fill="#231f20"></path><path d="M269.52,253.74a.43.43,0,0,1-.3-.11.46.46,0,0,1-.05-.64h0s1.56-2,.95-6.59a.45.45,0,0,1,.39-.51.46.46,0,0,1,.51.39c.68,5.06-1.08,7.21-1.15,7.3A.44.44,0,0,1,269.52,253.74Z" fill="#231f20"></path><path d="M263.47,253.74a.45.45,0,0,1-.32-.13c-.12-.13-3-3.07-3.67-6.19a.46.46,0,0,1,.89-.19c.62,2.86,3.4,5.71,3.43,5.73a.46.46,0,0,1,0,.65A.42.42,0,0,1,263.47,253.74Z" fill="#231f20"></path><path d="M259.93,253.74a.42.42,0,0,1-.26-.08,25.68,25.68,0,0,1-5.5-5.27.46.46,0,0,1,.1-.64.45.45,0,0,1,.64.1,25.38,25.38,0,0,0,5.28,5.06.46.46,0,0,1,.11.64A.47.47,0,0,1,259.93,253.74Z" fill="#231f20"></path><path d="M316.82,240.2h5.08a5.39,5.39,0,0,1-3.15,3.06,15,15,0,0,1-5.59,0Z" fill="#231f20"></path><path d="M316.3,244a18.87,18.87,0,0,1-3.22-.29.45.45,0,0,1-.21-.79l3.66-3.07a.44.44,0,0,1,.29-.11h5.08a.48.48,0,0,1,.38.2.48.48,0,0,1,.05.42,5.79,5.79,0,0,1-3.46,3.34A9.48,9.48,0,0,1,316.3,244Zm-2.06-1a12.81,12.81,0,0,0,4.38-.13,4.59,4.59,0,0,0,2.55-2.17H317Z" fill="#231f20"></path><path d="M293.52,240.2c0,3.39,5.22,6.13,11.65,6.13s11.65-2.74,11.65-6.13Z" fill="#fff"></path><path d="M305.17,246.79c-6.79,0-12.11-2.9-12.11-6.59a.47.47,0,0,1,.46-.46h23.3a.47.47,0,0,1,.46.46C317.28,243.89,312,246.79,305.17,246.79ZM294,240.66c.47,2.87,5.39,5.21,11.15,5.21s10.68-2.34,11.16-5.21Z" fill="#231f20"></path><path d="M297.46,240.66a.47.47,0,0,1-.38-.21c-.28-.44-2.7-4.29-2.7-6.21a.46.46,0,0,1,.91,0c0,1.4,1.85,4.6,2.56,5.71a.47.47,0,0,1-.39.71Z" fill="#231f20"></path><path d="M300.88,240.66a.46.46,0,0,1-.35-.17c-.07-.08-1.83-2.23-1.15-7.3a.45.45,0,1,1,.9.12c-.61,4.62.94,6.58,1,6.6a.46.46,0,0,1-.06.64A.48.48,0,0,1,300.88,240.66Z" fill="#231f20"></path><path d="M306.92,240.66a.47.47,0,0,1-.32-.14.45.45,0,0,1,0-.64s2.8-2.88,3.42-5.73a.46.46,0,0,1,.9.19c-.68,3.12-3.55,6.06-3.67,6.18A.47.47,0,0,1,306.92,240.66Z" fill="#231f20"></path><path d="M310.47,240.66a.44.44,0,0,1-.37-.2.45.45,0,0,1,.11-.64,25.65,25.65,0,0,0,5.28-5.06.46.46,0,1,1,.74.54,25.93,25.93,0,0,1-5.5,5.27A.43.43,0,0,1,310.47,240.66Z" fill="#231f20"></path><path d="M299.62,66.37a2,2,0,0,1,2.33,1,2,2,0,0,1-.06,1.59c-.59,1.37-2.84,3.43-4.17,1.7C296.6,69.16,298.09,66.81,299.62,66.37Z" fill="#231f20"></path><path d="M299,71.73a2,2,0,0,1-1.6-.83,2.57,2.57,0,0,1-.32-2.44,4,4,0,0,1,2.45-2.53h0a2.44,2.44,0,0,1,2.88,1.21,2.53,2.53,0,0,1-.06,2,4.63,4.63,0,0,1-3.09,2.62Zm.78-4.92a3.13,3.13,0,0,0-1.83,1.93,1.7,1.7,0,0,0,.17,1.6,1.07,1.07,0,0,0,1,.47,3.73,3.73,0,0,0,2.36-2.07,1.57,1.57,0,0,0,.06-1.23,1.52,1.52,0,0,0-1.79-.7Z" fill="#231f20"></path><path d="M309.81,71.68a.53.53,0,0,1-.2-.05.46.46,0,0,1-.21-.61L312,65.77l-2.82-3.85a.45.45,0,0,1,.1-.64.47.47,0,0,1,.64.1l3,4.08a.46.46,0,0,1,0,.47l-2.7,5.49A.46.46,0,0,1,309.81,71.68Z" fill="#231f20"></path><path d="M310.84,75.81a.45.45,0,0,1-.4-.24.46.46,0,0,1,.18-.62l8.45-4.53a.46.46,0,1,1,.43.81l-8.45,4.52A.39.39,0,0,1,310.84,75.81Z" fill="#231f20"></path><path d="M293.09,80.38a.49.49,0,0,1-.37-.18l-3-4.08a.46.46,0,0,1,.74-.54l2.82,3.85,5.78-.86a.46.46,0,1,1,.13.91l-6,.9Z" fill="#231f20"></path><path d="M301.45,67.52c-.62,0-1.29-1.26-1.56-1.81-.46-1-1.79-4.34.5-6.77a.46.46,0,1,1,.67.63A4.07,4.07,0,0,0,300,63a7,7,0,0,0,1.52,3.59.45.45,0,0,1,.34.41.46.46,0,0,1-.42.49Z" fill="#231f20"></path><path d="M297,87.32a.48.48,0,0,1-.31-.13.46.46,0,0,1,0-.65l5.86-6.09a.47.47,0,0,1,.65,0,.46.46,0,0,1,0,.65l-5.87,6.09A.47.47,0,0,1,297,87.32Z" fill="#231f20"></path><path d="M306.72,96.41a.47.47,0,0,1-.32-.14l-4.67-4.73a.46.46,0,0,1,0-.62L306,85.73a.45.45,0,0,1,.7.58l-4,4.88,4.38,4.44a.45.45,0,0,1,0,.64A.43.43,0,0,1,306.72,96.41Z" fill="#231f20"></path><path d="M323.4,84.21A.47.47,0,0,1,323,84l-3.21-4.49-5.66,1.29a.45.45,0,0,1-.55-.34.46.46,0,0,1,.34-.55l6-1.36a.44.44,0,0,1,.48.18l3.38,4.74a.45.45,0,0,1-.1.63A.48.48,0,0,1,323.4,84.21Z" fill="#231f20"></path><ellipse cx="306.07" cy="77.02" rx="6.77" ry="10.36" transform="translate(13.56 195.54) rotate(-36.18)" fill="#fff"></ellipse><path d="M309.26,86.73c-3,0-6.51-2-9-5.44-3.52-4.82-3.76-10.65-.55-13s8.7-.35,12.23,4.46h0c3.52,4.81,3.76,10.64.55,13A5.34,5.34,0,0,1,309.26,86.73ZM302.92,68.2a4.5,4.5,0,0,0-2.7.82c-2.81,2.06-2.47,7.32.75,11.73s8.13,6.32,10.95,4.26,2.47-7.31-.75-11.72C308.82,70.08,305.59,68.2,302.92,68.2Z" fill="#231f20"></path><path d="M298.61,77.78a.47.47,0,0,1-.37-.19.45.45,0,0,1,.1-.64l9.7-7.09a.45.45,0,0,1,.64.1.46.46,0,0,1-.1.64l-9.7,7.09A.46.46,0,0,1,298.61,77.78Z" fill="#231f20"></path><path d="M312.19,85.84a.45.45,0,0,1-.37-.19l-8.31-11.36a.45.45,0,0,1,.1-.63.46.46,0,0,1,.64.09l8.3,11.36a.46.46,0,0,1-.09.64A.48.48,0,0,1,312.19,85.84Z" fill="#231f20"></path><path d="M298,70.39a.45.45,0,0,1-.37-.2c-.12-.17-3-4.23-7.23-2.48a.46.46,0,1,1-.35-.85c4.94-2,8.3,2.77,8.33,2.82a.45.45,0,0,1-.12.63A.5.5,0,0,1,298,70.39Z" fill="#231f20"></path><path d="M294.18,124.53a1.68,1.68,0,0,1,.92,1.93,1.76,1.76,0,0,1-1,1c-1.14.52-3.74.53-3.59-1.31C290.69,124.57,293,123.94,294.18,124.53Z" fill="#231f20"></path><path d="M292.58,128.2a3.06,3.06,0,0,1-1.74-.47,1.71,1.71,0,0,1-.73-1.64,2.24,2.24,0,0,1,1.22-1.77,3.51,3.51,0,0,1,3.05-.2h0a2.14,2.14,0,0,1,1.15,2.49,2.18,2.18,0,0,1-1.19,1.24A4.54,4.54,0,0,1,292.58,128.2Zm.54-3.43a2.87,2.87,0,0,0-1.34.34,1.39,1.39,0,0,0-.76,1,.81.81,0,0,0,.35.82,3.08,3.08,0,0,0,2.59,0,1.31,1.31,0,0,0,.71-.7,1.24,1.24,0,0,0-.69-1.38A2.09,2.09,0,0,0,293.12,124.77Z" fill="#231f20"></path><path d="M297.83,133.86a.46.46,0,0,1-.17-.88l4.57-1.82.42-4a.48.48,0,0,1,.51-.41.45.45,0,0,1,.4.51l-.45,4.26a.42.42,0,0,1-.28.37L298,133.83A.51.51,0,0,1,297.83,133.86Z" fill="#231f20"></path><path d="M304,139h-.11L296,137a.46.46,0,0,1,.22-.89l7.89,2a.46.46,0,0,1-.11.9Z" fill="#231f20"></path><path d="M286.67,132.69a.5.5,0,0,1-.26-.08l-4.32-2.89a.45.45,0,0,1-.2-.42l.44-4.27a.46.46,0,0,1,.51-.4.45.45,0,0,1,.4.5l-.41,4,4.09,2.73a.45.45,0,0,1,.13.63A.48.48,0,0,1,286.67,132.69Z" fill="#231f20"></path><path d="M294.93,126.47a.44.44,0,0,1-.28-.1c-.44-.34-.18-1.47,0-2.11.27-.89,1.36-3.8,4.24-4a.46.46,0,0,1,.49.42.46.46,0,0,1-.42.49,3.43,3.43,0,0,0-2.52,1.5,5.88,5.88,0,0,0-1.12,3.14.45.45,0,0,1,0,.51A.44.44,0,0,1,294.93,126.47Zm.28-.82Z" fill="#231f20"></path><path d="M280.82,136.38a.45.45,0,0,1-.45-.43.46.46,0,0,1,.42-.49L288,135a.45.45,0,0,1,.49.42.47.47,0,0,1-.43.49l-7.17.48Z" fill="#231f20"></path><path d="M281.78,147.66a.45.45,0,0,1-.45-.44l-.25-5.64a.45.45,0,0,1,.4-.47l5.66-.83a.47.47,0,0,1,.52.39.47.47,0,0,1-.39.52L282,142l.23,5.23a.46.46,0,0,1-.44.48Z" fill="#231f20"></path><path d="M299.24,149.5h-.06a.45.45,0,0,1-.4-.5l.54-4.62L295.05,142a.45.45,0,0,1,.45-.79l4.53,2.54a.45.45,0,0,1,.23.45l-.57,4.91A.47.47,0,0,1,299.24,149.5Z" fill="#231f20"></path><ellipse cx="292.17" cy="134.92" rx="8.8" ry="5.75" transform="translate(127.46 411.38) rotate(-84)" fill="#fff"></ellipse><path d="M291.65,144.14a3.39,3.39,0,0,1-.45,0,5.41,5.41,0,0,1-4.13-3.23A12.77,12.77,0,0,1,288.42,128a5.37,5.37,0,0,1,4.71-2.3,5.44,5.44,0,0,1,4.14,3.23,12.83,12.83,0,0,1-1.35,12.88A5.62,5.62,0,0,1,291.65,144.14Zm1-17.54a4.72,4.72,0,0,0-3.56,2,11.86,11.86,0,0,0-1.25,11.88,4.05,4.05,0,0,0,7.33.77,11,11,0,0,0,2.22-5.77,11.06,11.06,0,0,0-1-6.11,4.56,4.56,0,0,0-3.42-2.74Z" fill="#231f20"></path><path d="M297.45,132.38h-.05l-10.15-1.06a.48.48,0,0,1-.41-.51.46.46,0,0,1,.5-.4l10.16,1.06a.46.46,0,0,1,.4.51A.46.46,0,0,1,297.45,132.38Z" fill="#231f20"></path><path d="M291.25,144.12h-.05a.47.47,0,0,1-.41-.5L292,131.73a.46.46,0,0,1,.5-.4.45.45,0,0,1,.41.5l-1.25,11.88A.45.45,0,0,1,291.25,144.12Z" fill="#231f20"></path><path d="M291.13,126.31h-.06a.46.46,0,0,1-.39-.52c0-.17.53-4.3-3.09-5.61a.45.45,0,0,1,.31-.85c4.32,1.55,3.69,6.54,3.68,6.59A.44.44,0,0,1,291.13,126.31Z" fill="#231f20"></path><path d="M262.15,87.21a2.53,2.53,0,0,1,1.4,2.93,2.68,2.68,0,0,1-1.44,1.48c-1.74.8-5.69.82-5.46-2C256.84,87.26,260.31,86.3,262.15,87.21Z" fill="#231f20"></path><path d="M259.73,92.54a4.43,4.43,0,0,1-2.52-.67,2.4,2.4,0,0,1-1-2.28,3.18,3.18,0,0,1,1.74-2.51,5,5,0,0,1,4.41-.29,3,3,0,0,1,1.64,3.5A3.09,3.09,0,0,1,262.3,92,6.34,6.34,0,0,1,259.73,92.54Zm.81-5.21a4.46,4.46,0,0,0-2.15.55,2.28,2.28,0,0,0-1.28,1.79,1.47,1.47,0,0,0,.62,1.45c1.07.76,3.16.56,4.19.08a2.18,2.18,0,0,0,1.2-1.21A2.09,2.09,0,0,0,262,87.62h0A3.15,3.15,0,0,0,260.54,87.33Z" fill="#231f20"></path><path d="M267.71,101.15a.45.45,0,0,1-.17-.88l7.09-2.82.65-6.21a.46.46,0,0,1,.5-.41.46.46,0,0,1,.41.5l-.68,6.49a.48.48,0,0,1-.29.38l-7.34,2.92Z" fill="#231f20"></path><path d="M277.12,109l-.12,0-12-3a.45.45,0,0,1,.22-.88l12,3a.47.47,0,0,1,.33.56A.46.46,0,0,1,277.12,109Z" fill="#231f20"></path><path d="M250.72,99.37a.5.5,0,0,1-.26-.08l-6.57-4.39a.45.45,0,0,1-.2-.42l.68-6.49a.46.46,0,0,1,.5-.41.47.47,0,0,1,.41.51l-.66,6.21L251,98.53a.47.47,0,0,1,.13.64A.46.46,0,0,1,250.72,99.37Z" fill="#231f20"></path><path d="M263.3,89.91a.47.47,0,0,1-.28-.09c-.6-.47-.08-2.39.1-3,.39-1.31,2-5.62,6.23-5.95a.44.44,0,0,1,.49.42.46.46,0,0,1-.42.49,5.48,5.48,0,0,0-4.2,2.66,8.84,8.84,0,0,0-1.55,4.71.48.48,0,0,1,0,.56A.48.48,0,0,1,263.3,89.91Zm.37-.69Zm-.09-.12Z" fill="#231f20"></path><path d="M241.83,105a.46.46,0,0,1-.46-.42.47.47,0,0,1,.43-.49l10.9-.74a.45.45,0,0,1,.49.42.46.46,0,0,1-.43.49l-10.9.74Z" fill="#231f20"></path><path d="M243.29,122.15a.45.45,0,0,1-.46-.43l-.36-8.59a.44.44,0,0,1,.39-.47l8.61-1.26a.47.47,0,0,1,.52.39.46.46,0,0,1-.39.52l-8.2,1.19.35,8.18a.46.46,0,0,1-.44.47Z" fill="#231f20"></path><path d="M269.84,124.94h0a.46.46,0,0,1-.4-.51l.83-7.17-6.62-3.72a.46.46,0,0,1-.18-.62.45.45,0,0,1,.62-.17l6.9,3.86a.46.46,0,0,1,.23.45l-.87,7.48A.46.46,0,0,1,269.84,124.94Z" fill="#231f20"></path><ellipse cx="259.09" cy="103" rx="13.39" ry="8.75" transform="translate(129.58 349.91) rotate(-84)" fill="#fff"></ellipse><path d="M258.29,116.8l-.65,0c-2.48-.26-4.65-2-6.1-4.79a18,18,0,0,1-1.61-9.94c.8-7.6,5.55-13.36,10.61-12.81s8.51,7.14,7.71,14.73h0C267.49,111.23,263.09,116.8,258.29,116.8Zm1.59-26.69c-4.34,0-8.33,5.22-9,12a17.06,17.06,0,0,0,1.51,9.43c1.31,2.54,3.22,4.07,5.39,4.3,4.55.47,8.86-4.9,9.6-12h0c.74-7.09-2.35-13.25-6.9-13.73A5.25,5.25,0,0,0,259.88,90.11Zm7.91,13.8h0Z" fill="#231f20"></path><path d="M267.12,98.9h0l-15.45-1.62a.46.46,0,1,1,.1-.91L267.17,98a.46.46,0,0,1,.41.5A.46.46,0,0,1,267.12,98.9Z" fill="#231f20"></path><path d="M257.69,116.77h-.05a.45.45,0,0,1-.4-.5l1.9-18.09a.45.45,0,1,1,.9.1l-1.9,18.08A.45.45,0,0,1,257.69,116.77Z" fill="#231f20"></path><path d="M257.51,89.67h-.06a.45.45,0,0,1-.39-.51c0-.28.84-6.74-4.85-8.8a.46.46,0,0,1-.28-.58.47.47,0,0,1,.59-.28c6.39,2.31,5.46,9.7,5.44,9.78A.44.44,0,0,1,257.51,89.67Z" fill="#231f20"></path><path d="M211.08,56a1.83,1.83,0,0,1,1,2.12,1.87,1.87,0,0,1-1,1.06c-1.25.58-4.1.59-3.93-1.43C207.26,56,209.75,55.31,211.08,56Z" fill="#231f20"></path><path d="M209.33,59.94a3.26,3.26,0,0,1-1.88-.51,1.82,1.82,0,0,1-.78-1.76A2.43,2.43,0,0,1,208,55.76a3.79,3.79,0,0,1,3.3-.21h0a2.31,2.31,0,0,1,1.25,2.68,2.39,2.39,0,0,1-1.29,1.33A4.86,4.86,0,0,1,209.33,59.94Zm.59-3.76a3.11,3.11,0,0,0-1.49.38,1.52,1.52,0,0,0-.85,1.19.93.93,0,0,0,.39.93,3.43,3.43,0,0,0,2.89,0,1.48,1.48,0,0,0,.8-.8,1.39,1.39,0,0,0-.78-1.56h0A2.22,2.22,0,0,0,209.92,56.18Z" fill="#231f20"></path><path d="M215.08,66.14a.46.46,0,0,1-.16-.88l5-2,.47-4.39a.45.45,0,1,1,.9.09l-.49,4.67a.43.43,0,0,1-.28.38l-5.3,2.11A.47.47,0,0,1,215.08,66.14Z" fill="#231f20"></path><path d="M221.87,71.79h-.12l-8.65-2.16a.46.46,0,0,1-.33-.56.45.45,0,0,1,.55-.33L222,70.89a.46.46,0,0,1-.11.9Z" fill="#231f20"></path><path d="M202.85,64.85a.48.48,0,0,1-.26-.07l-4.74-3.17a.44.44,0,0,1-.2-.42l.49-4.68a.46.46,0,0,1,.5-.4.45.45,0,0,1,.41.5l-.46,4.4,4.51,3a.45.45,0,0,1,.13.63A.47.47,0,0,1,202.85,64.85Z" fill="#231f20"></path><path d="M211.91,58a.42.42,0,0,1-.28-.1c-.46-.35-.18-1.57,0-2.27.29-1,1.47-4.13,4.6-4.38a.46.46,0,0,1,.49.42.46.46,0,0,1-.42.49,3.78,3.78,0,0,0-2.82,1.7,6.43,6.43,0,0,0-1.21,3.44.46.46,0,0,1-.39.7Zm.28-.82Z" fill="#231f20"></path><path d="M196.44,68.9a.45.45,0,0,1-.45-.43.44.44,0,0,1,.42-.48l7.86-.54a.45.45,0,0,1,.48.43.44.44,0,0,1-.42.48l-7.86.54Z" fill="#231f20"></path><path d="M197.49,81.27a.45.45,0,0,1-.45-.44l-.27-6.19a.46.46,0,0,1,.39-.47l6.21-.9a.47.47,0,0,1,.52.39.47.47,0,0,1-.39.52l-5.8.84.25,5.77a.46.46,0,0,1-.44.48Z" fill="#231f20"></path><path d="M216.62,83.28h-.05a.46.46,0,0,1-.4-.51l.59-5.08-4.7-2.64a.45.45,0,0,1-.17-.62.46.46,0,0,1,.62-.18l5,2.79a.46.46,0,0,1,.23.45l-.63,5.39A.46.46,0,0,1,216.62,83.28Z" fill="#231f20"></path><ellipse cx="208.88" cy="67.34" rx="9.65" ry="6.31" transform="translate(120.07 268.04) rotate(-84)" fill="#fff"></ellipse><path d="M208.3,77.41a3.85,3.85,0,0,1-.48,0,5.9,5.9,0,0,1-4.5-3.52A14,14,0,0,1,204.8,59.8a5.92,5.92,0,0,1,5.13-2.51c3.71.39,6.26,5.22,5.67,10.76h0C215.05,73.35,211.83,77.41,208.3,77.41Zm1.15-19.23a5.21,5.21,0,0,0-3.94,2.2,13.05,13.05,0,0,0-1.37,13.07,5,5,0,0,0,3.78,3c3.21.34,6.24-3.49,6.78-8.53s-1.65-9.41-4.86-9.75Zm5.7,9.82h0Z" fill="#231f20"></path><path d="M214.67,64.51h0l-11.13-1.17a.46.46,0,1,1,.09-.91l11.13,1.17a.46.46,0,0,1,.41.51A.45.45,0,0,1,214.67,64.51Z" fill="#231f20"></path><path d="M207.87,77.39h-.05a.45.45,0,0,1-.4-.5l1.36-13a.48.48,0,0,1,.51-.41.46.46,0,0,1,.4.51l-1.37,13A.45.45,0,0,1,207.87,77.39Z" fill="#231f20"></path><path d="M207.74,57.87h-.06a.45.45,0,0,1-.39-.51c0-.19.59-4.75-3.41-6.2a.45.45,0,0,1-.28-.58.47.47,0,0,1,.59-.28c4.7,1.7,4,7.13,4,7.18A.45.45,0,0,1,207.74,57.87Z" fill="#231f20"></path><path d="M273.67,156.08l-.12,0-90.88-25.31a.46.46,0,1,1,.25-.88l90.88,25.31a.45.45,0,0,1,.31.56A.45.45,0,0,1,273.67,156.08Z" fill="#231f20"></path><path d="M171.89,117.67h0a.46.46,0,0,1-.42-.49l4.69-63a.44.44,0,0,1,.49-.42.46.46,0,0,1,.42.49l-4.69,63A.46.46,0,0,1,171.89,117.67Z" fill="#231f20"></path><path d="M163.74,79.51H137.58a.5.5,0,0,1-.5-.5.5.5,0,0,1,.5-.5h26.16a.5.5,0,0,1,.5.5A.5.5,0,0,1,163.74,79.51Z" fill="#fff"></path><path d="M163.74,91.79H137.58a.5.5,0,0,1-.5-.5.5.5,0,0,1,.5-.5h26.16a.5.5,0,0,1,.5.5A.5.5,0,0,1,163.74,91.79Z" fill="#fff"></path><path d="M163.74,104.06H137.58a.5.5,0,0,1-.5-.5.5.5,0,0,1,.5-.5h26.16a.5.5,0,0,1,.5.5A.5.5,0,0,1,163.74,104.06Z" fill="#fff"></path><path d="M163.74,116.33H137.58a.5.5,0,1,1,0-1h26.16a.5.5,0,1,1,0,1Z" fill="#fff"></path><path d="M329,111H315.49a.5.5,0,0,1,0-1H329a.5.5,0,1,1,0,1Z" fill="#fff"></path><path d="M329,119.08H315.49a.5.5,0,0,1,0-1H329a.5.5,0,1,1,0,1Z" fill="#fff"></path><path d="M329,127.2H315.49a.5.5,0,0,1,0-1H329a.5.5,0,1,1,0,1Z" fill="#fff"></path><path d="M329,135.32H315.49a.5.5,0,0,1,0-1H329a.5.5,0,1,1,0,1Z" fill="#fff"></path><path d="M326.18,143.44H315.49a.5.5,0,0,1,0-1h10.69a.5.5,0,1,1,0,1Z" fill="#fff"></path><path d="M207.79,147.38H176.21a.5.5,0,1,1,0-1h31.58a.5.5,0,1,1,0,1Z" fill="#fff"></path><path d="M201.26,154.84h-25a.5.5,0,1,1,0-1h25a.5.5,0,0,1,0,1Z" fill="#fff"></path></svg>