<svg xmlns="http://www.w3.org/2000/svg" viewBox="0 0 400 300" width="247.20000000000002" height="185.4" class="illustration styles_illustrationTablet__1DWOa"><g id="_179_coding_flatline" data-name="#179_coding_flatline"><rect x="305.14" y="118.43" width="38.72" height="33.92" fill="#fff"></rect><path d="M343.87,152.85H305.14a.5.5,0,0,1-.5-.5V118.43a.5.5,0,0,1,.5-.5h38.73a.5.5,0,0,1,.5.5v33.92A.5.5,0,0,1,343.87,152.85Zm-38.23-1h37.73V118.93H305.64Z" fill="#d1d3d4"></path><path d="M343.87,122.12H305.14a.5.5,0,0,1-.5-.5.51.51,0,0,1,.5-.5h38.73a.51.51,0,0,1,.5.5A.5.5,0,0,1,343.87,122.12Z" fill="#d1d3d4"></path><path d="M322.89,131H312.48a.51.51,0,0,1-.5-.5v-5.83a.51.51,0,0,1,.5-.5h10.41a.51.51,0,0,1,.5.5v5.83A.51.51,0,0,1,322.89,131ZM313,130h9.41v-4.83H313Z" fill="#d1d3d4"></path><path d="M337.52,144.57h-10.4a.5.5,0,0,1-.5-.5v-5.83a.5.5,0,0,1,.5-.5h10.4a.5.5,0,0,1,.5.5v5.83A.5.5,0,0,1,337.52,144.57Zm-9.9-1H337v-4.83h-9.4Z" fill="#d1d3d4"></path><path d="M322.89,147.48H312.48a.51.51,0,0,1-.5-.5v-5.83a.51.51,0,0,1,.5-.5h10.41a.51.51,0,0,1,.5.5V147A.51.51,0,0,1,322.89,147.48Zm-9.91-1h9.41v-4.83H313Z" fill="#d1d3d4"></path><path d="M332.32,138.74a.5.5,0,0,1-.5-.5v-2.76H317.68a.51.51,0,0,1-.5-.5v-4.49a.5.5,0,0,1,.5-.5.5.5,0,0,1,.5.5v4h14.14a.5.5,0,0,1,.5.5v3.26A.5.5,0,0,1,332.32,138.74Z" fill="#d1d3d4"></path><path d="M317.68,141.65a.5.5,0,0,1-.5-.5V135a.5.5,0,0,1,.5-.5.5.5,0,0,1,.5.5v6.17A.5.5,0,0,1,317.68,141.65Z" fill="#d1d3d4"></path><rect x="63.1" y="62.7" width="93.2" height="66.34" fill="#fff"></rect><path d="M156.3,129.54H63.1a.5.5,0,0,1-.5-.5V62.71a.5.5,0,0,1,.5-.5h93.2a.5.5,0,0,1,.5.5V129A.5.5,0,0,1,156.3,129.54Zm-92.7-1h92.2V63.21H63.6Z" fill="#d1d3d4"></path><path d="M156.3,69.77H63.1a.5.5,0,0,1,0-1h93.2a.5.5,0,0,1,0,1Z" fill="#d1d3d4"></path><path d="M82.65,75.07H71.27a.5.5,0,0,1-.5-.5.5.5,0,0,1,.5-.5H82.65a.5.5,0,0,1,.5.5A.5.5,0,0,1,82.65,75.07Z" fill="#d1d3d4"></path><path d="M111.36,75.07H88.65a.5.5,0,0,1-.5-.5.5.5,0,0,1,.5-.5h22.71a.5.5,0,0,1,.5.5A.5.5,0,0,1,111.36,75.07Z" fill="#d1d3d4"></path><path d="M118.2,81H95.48a.51.51,0,0,1-.5-.5.5.5,0,0,1,.5-.5H118.2a.5.5,0,0,1,.5.5A.5.5,0,0,1,118.2,81Z" fill="#d1d3d4"></path><path d="M85.32,81H73.94a.5.5,0,0,1-.5-.5.5.5,0,0,1,.5-.5H85.32a.5.5,0,0,1,.5.5A.5.5,0,0,1,85.32,81Z" fill="#d1d3d4"></path><path d="M85.76,86.88H76.61a.5.5,0,0,1,0-1h9.15a.5.5,0,0,1,0,1Z" fill="#d1d3d4"></path><path d="M122.26,86.88H93.83a.5.5,0,1,1,0-1h28.43a.5.5,0,0,1,0,1Z" fill="#d1d3d4"></path><path d="M90.67,92.79H79.28a.51.51,0,0,1-.5-.5.5.5,0,0,1,.5-.5H90.67a.5.5,0,0,1,.5.5A.5.5,0,0,1,90.67,92.79Z" fill="#d1d3d4"></path><path d="M128.14,92.79H94.33a.51.51,0,0,1-.5-.5.5.5,0,0,1,.5-.5h33.81a.5.5,0,0,1,.5.5A.5.5,0,0,1,128.14,92.79Z" fill="#d1d3d4"></path><path d="M87.65,98.69H76.26a.5.5,0,1,1,0-1H87.65a.5.5,0,0,1,0,1Z" fill="#d1d3d4"></path><path d="M110.34,98.69H92a.5.5,0,1,1,0-1h18.33a.5.5,0,0,1,0,1Z" fill="#d1d3d4"></path><path d="M135.68,98.69H117.35a.5.5,0,0,1,0-1h18.33a.5.5,0,0,1,0,1Z" fill="#d1d3d4"></path><path d="M80.19,104.59H76.26a.5.5,0,0,1-.5-.5.51.51,0,0,1,.5-.5h3.93a.51.51,0,0,1,.5.5A.5.5,0,0,1,80.19,104.59Z" fill="#d1d3d4"></path><path d="M110.34,104.59H86.87a.5.5,0,0,1-.5-.5.51.51,0,0,1,.5-.5h23.47a.5.5,0,0,1,.5.5A.5.5,0,0,1,110.34,104.59Z" fill="#d1d3d4"></path><path d="M119.59,104.59H113a.5.5,0,0,1-.5-.5.51.51,0,0,1,.5-.5h6.55a.5.5,0,0,1,.5.5A.5.5,0,0,1,119.59,104.59Z" fill="#d1d3d4"></path><path d="M82.42,110.5H76.26a.5.5,0,1,1,0-1h6.16a.5.5,0,1,1,0,1Z" fill="#d1d3d4"></path><path d="M116.09,110.5H88.23a.5.5,0,0,1,0-1h27.86a.5.5,0,0,1,0,1Z" fill="#d1d3d4"></path><path d="M130.23,110.5H118.84a.5.5,0,0,1,0-1h11.39a.5.5,0,0,1,0,1Z" fill="#d1d3d4"></path><path d="M79.63,116.4h-6a.5.5,0,0,1-.5-.5.5.5,0,0,1,.5-.5h6a.5.5,0,0,1,.5.5A.5.5,0,0,1,79.63,116.4Z" fill="#d1d3d4"></path><path d="M113,116.4H86.67a.5.5,0,0,1-.5-.5.5.5,0,0,1,.5-.5H113a.5.5,0,0,1,.5.5A.5.5,0,0,1,113,116.4Z" fill="#d1d3d4"></path><path d="M85,122.31H73.59a.5.5,0,0,1-.5-.5.5.5,0,0,1,.5-.5H85a.5.5,0,0,1,.5.5A.51.51,0,0,1,85,122.31Z" fill="#d1d3d4"></path><path d="M148.13,92.79H132.74a.5.5,0,0,1-.5-.5.5.5,0,0,1,.5-.5h15.39a.5.5,0,0,1,.5.5A.5.5,0,0,1,148.13,92.79Z" fill="#d1d3d4"></path><path d="M125.06,75.1c-4.41,0-7.67,0-7.82,0a.49.49,0,0,1-.38-.59.5.5,0,0,1,.55-.39c.76,0,18.79,0,25.7,0h0a.5.5,0,0,1,.5.5.5.5,0,0,1-.5.5C137.83,75.09,130.55,75.1,125.06,75.1Z" fill="#d1d3d4"></path><path d="M127.61,116.4H116.09a.5.5,0,0,1-.5-.5.5.5,0,0,1,.5-.5h11.52a.51.51,0,0,1,.5.5A.5.5,0,0,1,127.61,116.4Z" fill="#d1d3d4"></path><path d="M101.18,122.31H92.71a.5.5,0,0,1-.5-.5.5.5,0,0,1,.5-.5h8.47a.5.5,0,0,1,.5.5A.51.51,0,0,1,101.18,122.31Z" fill="#d1d3d4"></path><path d="M124.53,122.31H104.4a.5.5,0,0,1-.5-.5.5.5,0,0,1,.5-.5h20.13a.5.5,0,0,1,.5.5A.5.5,0,0,1,124.53,122.31Z" fill="#d1d3d4"></path><path d="M294.06,212.83s7.76-81-4-93.27-48.83-7.6-67.76-3.73c-22,4.49-10.23,98-10.23,98Z" fill="#231f20"></path><path d="M212.1,214.36a.49.49,0,0,1-.49-.43c-.48-3.84-11.53-94.06,10.62-98.59,9-1.84,54.67-10.32,68.22,3.87,11.75,12.32,4.42,90.35,4.1,93.67a.49.49,0,0,1-.49.45l-81.95,1Zm48-102.23h-1.17c-15.13.14-30.55,3-36.48,4.19-8.71,1.78-13.19,19.14-12.94,50.2.17,21.86,2.66,43.5,3,46.84l81.06-1c.59-6.49,7.12-80.91-3.88-92.43C284.8,114.74,274.83,112.13,260.08,112.13Zm34,100.7h0Z" fill="#231f20"></path><path d="M188.86,144.16l-4.71,45.35s-35.32,5.43-41.28,4.89-17.45,2.11-19.14,3.57-9.75,10.68-8.11,10.69,8.8-6.64,9.54-6.62,6.92,1.62,6.92,1.62S122,209.3,125,209.57s12.58-4.34,13.62-4.57,50,7.73,61,5.12,9.36-20.18,9.33-26-1.48-43.94-1.48-43.94Z" fill="#fff"></path><path d="M192.81,211.15c-12.57,0-35.05-3.09-47-4.74-3.8-.52-6.8-.95-7.17-.91-.19,0-1.23.48-2.32.94-4.61,1.94-9.27,3.82-11.41,3.63-.71-.06-.93-.4-1-.68-.21-1,2.09-2.83,6.83-5.55-2.32-.59-5.19-1.28-5.61-1.3-.24.1-1.73,1.3-2.93,2.26-3.17,2.55-5.51,4.36-6.59,4.36h0a.68.68,0,0,1-.67-.45c-.6-1.63,7.73-10.5,8.45-11.12,1.85-1.59,13.46-4.24,19.51-3.69,5.49.5,36.94-4.24,40.78-4.82l4.67-45a.49.49,0,0,1,.39-.43l18.52-4a.54.54,0,0,1,.41.1.47.47,0,0,1,.19.37c0,.39,1.44,38.18,1.48,43.95,0,.55,0,1.2,0,1.94.19,7.18.6,22.11-9.76,24.57A31.94,31.94,0,0,1,192.81,211.15Zm-54.18-6.65c.53,0,2.16.22,7.31.92,13.49,1.86,45.09,6.2,53.46,4.22,9.57-2.27,9.18-16.66,9-23.57,0-.75,0-1.41,0-2,0-5.36-1.27-38.45-1.45-43.32l-17.58,3.78-4.67,45a.5.5,0,0,1-.42.44c-1.45.23-35.46,5.42-41.41,4.9s-17.27,2.16-18.76,3.45-7.11,7.78-8,9.7a40.09,40.09,0,0,0,5.56-4c2.51-2,3.14-2.49,3.58-2.48.75,0,6,1.37,7,1.63a.51.51,0,0,1,.12.93c-3.19,1.78-6.71,4.08-7.33,5h0c2.07.18,7.82-2.25,10.93-3.56a25.44,25.44,0,0,1,2.55-1Zm45.52-15h0Z" fill="#231f20"></path><path d="M186.79,168.12c5-31.07,10.22-34.48,10.22-34.48,9-15.56,37.94-18.39,37.94-18.39s28.76,11.83,34.67,33c3.91,14,2.77,69.11,2.77,69.11l-72.27-2.82s-2.17-23.65.56-46.47Z" fill="#68e1fd"></path><path d="M223.16,139.16s-4.61,35.73,6.41,37S247,130.37,247,130.37l-24.37,5" fill="#231f20"></path><path d="M230,176.73a4.19,4.19,0,0,1-.5,0,5.82,5.82,0,0,1-4-2.39c-6.3-8.09-3-34.11-2.89-35.22a.5.5,0,0,1,.56-.43.5.5,0,0,1,.43.56c0,.27-3.36,26.72,2.69,34.48a4.82,4.82,0,0,0,3.29,2c8.53,1,14.91-31.27,16.82-44.71l-23.68,4.88a.5.5,0,0,1-.2-1l24.37-5a.45.45,0,0,1,.44.13.5.5,0,0,1,.16.43C247.28,132.36,241.07,176.72,230,176.73Z" fill="#231f20"></path><rect x="48.78" y="215.77" width="302.43" height="6.95" fill="#fff"></rect><path d="M351.21,223.21H48.79a.5.5,0,0,1-.5-.5v-6.94a.5.5,0,0,1,.5-.5H351.21a.5.5,0,0,1,.5.5v6.94A.5.5,0,0,1,351.21,223.21Zm-301.92-1H350.71v-5.94H49.29Z" fill="#231f20"></path><rect x="53.2" y="222.71" width="293.61" height="35.58" fill="#fff"></rect><path d="M346.8,258.8H53.2a.5.5,0,0,1-.5-.5V222.71a.5.5,0,0,1,.5-.5H346.8a.5.5,0,0,1,.5.5V258.3A.5.5,0,0,1,346.8,258.8Zm-293.1-1H346.3V223.21H53.7Z" fill="#231f20"></path><rect x="117.44" y="211.69" width="93.19" height="4.08" fill="#231f20"></rect><path d="M210.63,216.27H117.44a.5.5,0,0,1-.5-.5v-4.08a.5.5,0,0,1,.5-.5h93.19a.5.5,0,0,1,.5.5v4.08A.51.51,0,0,1,210.63,216.27Zm-92.69-1h92.19v-3.08H117.94Z" fill="#231f20"></path><path d="M262.18,163.72,275.4,194.3s-22.14,4.28-35,6.07c0,0-14.81-5.35-19.81-5.18s-12.25,5.21-13.93,7c-5.56,5.81-5.15,9-5.07,10.71.16,3.52,25.58-.86,29-.51s62.79,5.68,67.78,1.22-11.42-55.34-11.42-55.34" fill="#fff"></path><path d="M282.43,215.84c-20.14,0-51.53-2.93-52-3a70.8,70.8,0,0,0-8.06.67c-10.29,1.12-19,1.92-20.89.27a1.24,1.24,0,0,1-.47-.91v-.19c-.1-1.8-.28-5.14,5.22-10.89,1.9-2,9.25-6.94,14.27-7.12,4.82-.18,18.38,4.63,19.89,5.17,11.56-1.61,30.64-5.23,34.29-5.93l-13-30a.5.5,0,1,1,.91-.39l13.23,30.58a.52.52,0,0,1,0,.44.51.51,0,0,1-.35.25c-.22.05-22.31,4.3-35.08,6.08a.5.5,0,0,1-.24,0c-.14-.05-14.8-5.36-19.63-5.15s-12,5.13-13.58,6.81c-5.19,5.44-5,8.5-4.94,10.14v.2s0,.1.12.2c1.75,1.5,13.26.24,20.13-.51a65.05,65.05,0,0,1,8.28-.66c7.32.77,62.85,5.4,67.4,1.34,3.49-3.12-5-34.49-11.57-54.82a.49.49,0,0,1,.33-.62.49.49,0,0,1,.62.32c1.7,5.24,16.38,51.32,11.29,55.87C297.08,215.35,290.7,215.84,282.43,215.84Z" fill="#231f20"></path><path d="M257.69,131.23a60,60,0,0,1,21.09,11.09c10.28,8.76,14.54,30.69,14.54,30.69L255.7,179.9Z" fill="#68e1fd"></path><path d="M220,131.92c2.79-1,5.47-2,8.58-1.72,4.64.37,9,2.21,13.75,2.43,5.06.23,10.36-.72,15.37-1.4,1.46-.21.23,1.92,1.35,1,3.92-3.44,3.16-9.49,2.73-14.05A116.44,116.44,0,0,0,255,87.22c-2-5.16-9.61-24-17.43-14.84,1.76-2.06-8-5.62-9.38-5.86C215.72,64.25,205.66,76,204,87.32c-1.24,8.25-.65,16.29-3.83,24.22-1.4,3.5-3.3,7-3.09,10.77.24,4.53,3.69,8.5,7.9,10.19s9,1.36,13.34,0C218.85,132.31,219.42,132.11,220,131.92Z" fill="#fff"></path><path d="M211.19,134.15a17.16,17.16,0,0,1-6.45-1.19c-4.67-1.87-8-6.14-8.21-10.62-.18-3.19,1.1-6.18,2.33-9.07.27-.64.54-1.28.8-1.92,2.12-5.29,2.53-10.55,3-16.11.21-2.61.42-5.3.83-8a27.6,27.6,0,0,1,10.71-17.86A18.24,18.24,0,0,1,228.28,66c.78.14,8.5,2.72,9.8,5.09a5.46,5.46,0,0,1,4.73-1.64c5.21.89,9.76,10,12.66,17.56,3.44,8.94,5.67,19.09,6.8,31l.05.56c.45,4.65,1,10.44-2.95,13.91-.2.18-.58.51-1,.33a.79.79,0,0,1-.39-.8,1,1,0,0,0-.05-.37h-.19l-2.38.34a71.26,71.26,0,0,1-13.08,1.07,40.6,40.6,0,0,1-7.39-1.26,42.9,42.9,0,0,0-6.38-1.17c-2.86-.23-5.34.63-8,1.55l-.41.14h0c-.57.2-1.14.4-1.73.58A24.39,24.39,0,0,1,211.19,134.15Zm13.89-67.41a17.6,17.6,0,0,0-10.33,3.47,26.55,26.55,0,0,0-10.31,17.18c-.39,2.66-.61,5.34-.81,7.93-.43,5.39-.87,11-3,16.4-.26.65-.54,1.29-.81,1.94-1.19,2.78-2.41,5.67-2.26,8.63.23,4.09,3.27,8,7.59,9.74,4.72,1.89,9.68,1,13,0l1.71-.57.41-.15c2.72-1,5.3-1.85,8.37-1.6a43.74,43.74,0,0,1,6.53,1.2,39.26,39.26,0,0,0,7.2,1.23,70.48,70.48,0,0,0,12.9-1.06l2.38-.34a1.2,1.2,0,0,1,1,.22,1.06,1.06,0,0,1,.35.63c3.31-3.16,2.79-8.52,2.37-12.85l-.05-.55c-1.12-11.86-3.32-21.93-6.73-30.78-4-10.29-8.19-16.3-11.9-16.94-1.63-.27-3.17.46-4.69,2.24h0a.5.5,0,1,1-.76-.64.34.34,0,0,0,.06-.36c-.61-1.7-7.68-4.42-9.15-4.69A17.21,17.21,0,0,0,225.08,66.74ZM220,131.92h0Z" fill="#231f20"></path><path d="M209,91.21s-2.94,12.85.34,22a13.83,13.83,0,0,0,11.84,9.43l2,16.57s.94,8.48,11.17,5.92a17.94,17.94,0,0,0,12.71-12l-2.5-30.62S232,97.16,231.66,86.09C231.66,86.09,218.48,94.55,209,91.21Z" fill="#fff"></path><path d="M230.76,146.06a7.74,7.74,0,0,1-8.1-6.85l-1.95-16.16a14.45,14.45,0,0,1-11.86-9.72c-3.29-9.13-.48-21.7-.36-22.23a.51.51,0,0,1,.24-.33.49.49,0,0,1,.41,0c9.16,3.22,22.12-5,22.25-5.07a.5.5,0,0,1,.5,0,.52.52,0,0,1,.27.43c.29,10.61,12.46,15.92,12.58,16a.48.48,0,0,1,.3.42l2.5,30.62a.5.5,0,0,1,0,.17,18.68,18.68,0,0,1-13.08,12.31A15.38,15.38,0,0,1,230.76,146.06Zm-21.41-54.2c-.5,2.52-2.37,13.32.44,21.13a13.24,13.24,0,0,0,11.39,9.1.49.49,0,0,1,.47.44l2,16.57a7.44,7.44,0,0,0,2.85,4.77c1.88,1.29,4.46,1.54,7.71.73a17.62,17.62,0,0,0,12.33-11.52l-2.47-30.24c-1.83-.86-12-6.11-12.86-15.88C228.34,88.65,217.73,94.4,209.35,91.86Z" fill="#231f20"></path><path d="M217,112.54a4.46,4.46,0,0,1-1.57-.25,1.07,1.07,0,0,1-.65-.68c-.73-2,3-8.67,3.79-10a.5.5,0,0,1,.68-.19.51.51,0,0,1,.18.69c-1.79,3.09-4.13,8-3.71,9.13,0,.07,0,.08.06.08,1.74.66,4.91-.59,4.94-.6a.5.5,0,0,1,.65.28.5.5,0,0,1-.28.65A12.9,12.9,0,0,1,217,112.54Z" fill="#231f20"></path><path d="M221.29,117.23a14.69,14.69,0,0,1-7.82-2.57.49.49,0,0,1-.16-.69.5.5,0,0,1,.69-.16c3.78,2.4,7.35,3,10.62,1.83a11.42,11.42,0,0,0,5.83-4.92.51.51,0,0,1,.63-.33.5.5,0,0,1,.32.62,12.05,12.05,0,0,1-6.38,5.55A10.87,10.87,0,0,1,221.29,117.23Z" fill="#231f20"></path><path d="M221.16,122.59s9,0,13.91-1.87c0,0-4,13.73-12.4,14.67Z" fill="#231f20"></path><path d="M222.67,135.89a.51.51,0,0,1-.5-.44l-1.51-12.8a.52.52,0,0,1,.12-.4.47.47,0,0,1,.38-.16c.08,0,9,0,13.73-1.83a.49.49,0,0,1,.66.6c-.17.58-4.17,14.06-12.83,15Zm-.95-12.81,1.38,11.74c6.43-1.15,10.13-10.3,11.18-13.29C230,122.89,223.64,123.06,221.72,123.08Z" fill="#231f20"></path><ellipse cx="224.57" cy="99.44" rx="1.31" ry="2.3" transform="translate(-6.03 14.92) rotate(-3.75)" fill="#231f20"></ellipse><ellipse cx="212.51" cy="100.23" rx="1.31" ry="2.3" transform="translate(-6.11 14.13) rotate(-3.75)" fill="#231f20"></ellipse><path d="M261.05,112.14c1.53,9.7,4,27.59-11.92,24.57a13.1,13.1,0,0,1-8.24-5.34c-3.51-5,3.84-13.47,7.31-17.29" fill="#fff"></path><path d="M252.44,137.55a18.26,18.26,0,0,1-3.4-.35,13.59,13.59,0,0,1-8.56-5.54c-3.47-5,2.53-12.61,7.35-17.91a.49.49,0,0,1,.7,0,.5.5,0,0,1,0,.71c-2.65,2.91-10.69,11.76-7.27,16.66a12.53,12.53,0,0,0,7.93,5.14c4.09.78,7.19.17,9.23-1.81,4.86-4.71,3-16.52,2.09-22.2a.51.51,0,0,1,.42-.57.51.51,0,0,1,.57.42c1,6.29,2.85,18-2.38,23.07A9.26,9.26,0,0,1,252.44,137.55Z" fill="#231f20"></path><path d="M226.41,105.46c-4.13,0-7.49-2.81-7.49-6.26,0-3.08,2.66-4.78,7.49-4.78s7.48,1.7,7.48,4.78C233.89,102.65,230.53,105.46,226.41,105.46Zm0-10c-3,0-6.49.66-6.49,3.78,0,2.9,2.91,5.26,6.49,5.26s6.48-2.36,6.48-5.26C232.89,96.08,229.36,95.42,226.41,95.42Z" fill="#231f20"></path><path d="M211.28,105.46c-4.12,0-7.48-2.81-7.48-6.26,0-3.08,2.66-4.78,7.48-4.78s7.49,1.7,7.49,4.78C218.77,102.65,215.41,105.46,211.28,105.46Zm0-10c-2.95,0-6.48.66-6.48,3.78,0,2.9,2.91,5.26,6.48,5.26s6.49-2.36,6.49-5.26C217.77,96.08,214.24,95.42,211.28,95.42Z" fill="#231f20"></path><path d="M219.42,99.7h-1.15a.5.5,0,0,1-.5-.5.5.5,0,0,1,.5-.5h1.15a.5.5,0,0,1,.5.5A.5.5,0,0,1,219.42,99.7Z" fill="#231f20"></path><path d="M244.74,99.7H233.39a.5.5,0,0,1-.5-.5.5.5,0,0,1,.5-.5h11.35a.51.51,0,0,1,.5.5A.5.5,0,0,1,244.74,99.7Z" fill="#231f20"></path><path d="M239.06,100.89s3.13-10.14,8.68-4.65-.68,13-5,12.92" fill="#fff"></path><path d="M242.76,109.66h0a.49.49,0,0,1-.49-.5.49.49,0,0,1,.5-.5h.05c2.24,0,5-2.19,6.11-4.91a6.21,6.21,0,0,0-1.49-7.16c-1.22-1.2-2.39-1.68-3.47-1.4-2.76.69-4.37,5.79-4.38,5.85a.5.5,0,0,1-1-.3c.07-.23,1.79-5.69,5.1-6.52,1.44-.37,2.92.19,4.41,1.66a7.14,7.14,0,0,1,1.71,8.25C248.5,107.25,245.42,109.66,242.76,109.66Z" fill="#231f20"></path><path d="M199.52,151.06h-.05a.51.51,0,0,1-.45-.55,55.14,55.14,0,0,1,4.08-16.65.5.5,0,0,1,.91.42,54.21,54.21,0,0,0-4,16.33A.5.5,0,0,1,199.52,151.06Z" fill="#231f20"></path><rect x="98.99" y="114.82" width="107.62" height="71.49" rx="6.59" fill="#fff"></rect><path d="M200,186.8H105.58a7.1,7.1,0,0,1-7.09-7.09v-58.3a7.1,7.1,0,0,1,7.09-7.09H200a7.1,7.1,0,0,1,7.09,7.09v58.3A7.1,7.1,0,0,1,200,186.8Zm-94.44-71.48a6.09,6.09,0,0,0-6.09,6.09v58.3a6.09,6.09,0,0,0,6.09,6.09H200a6.09,6.09,0,0,0,6.09-6.09v-58.3a6.09,6.09,0,0,0-6.09-6.09Z" fill="#231f20"></path><polygon points="161.16 162.05 161.16 186.3 145.44 185.6 161.16 162.05" fill="#231f20"></polygon><path d="M161.16,186.8h0l-15.71-.7a.53.53,0,0,1-.43-.28.5.5,0,0,1,0-.5l15.72-23.55a.49.49,0,0,1,.56-.2.5.5,0,0,1,.36.48V186.3a.48.48,0,0,1-.16.36A.48.48,0,0,1,161.16,186.8Zm-14.81-1.66,14.31.64V163.7Z" fill="#231f20"></path><path d="M141.52,162.28S129.15,211,128.58,213.16c-.63,2.32,1.28,2.68,4.37,2.68h29.47v-2.12H149.85s5.37-24.52,11.31-51.67Z" fill="#fff"></path><path d="M162.42,216.34H133c-2.3,0-3.87-.19-4.6-1.15a2.4,2.4,0,0,1-.26-2.16c.57-2.09,12.82-50.38,12.95-50.87a.48.48,0,0,1,.47-.37l19.64-.24h0a.46.46,0,0,1,.38.18.5.5,0,0,1,.11.42l-11.18,51.07h11.95a.5.5,0,0,1,.5.5v2.12A.5.5,0,0,1,162.42,216.34Zm-20.51-53.56c-1.15,4.53-12.31,48.51-12.85,50.51a1.47,1.47,0,0,0,.08,1.29c.51.67,2.21.76,3.81.76h29v-1.12H149.85a.5.5,0,0,1-.39-.18.53.53,0,0,1-.1-.42l11.17-51.07Z" fill="#231f20"></path><path d="M269.17,180.4a.51.51,0,0,1-.46-.31c-4-9.7-10.8-26.09-10.77-26.85a.53.53,0,0,1,.52-.48.5.5,0,0,1,.48.47c.22,1.09,6.51,16.41,10.7,26.48a.51.51,0,0,1-.27.65A.48.48,0,0,1,269.17,180.4Z" fill="#231f20"></path><path d="M192.47,195.4a.49.49,0,0,1-.44-.26c-1.81-3.45-7.95-5.13-8-5.15a.5.5,0,1,1,.26-1c.27.07,6.62,1.8,8.64,5.64a.51.51,0,0,1-.22.68A.46.46,0,0,1,192.47,195.4Z" fill="#231f20"></path><circle cx="96.27" cy="206.97" r="3.71" fill="#231f20"></circle><path d="M96.27,211.18a4.21,4.21,0,1,1,4.21-4.21A4.22,4.22,0,0,1,96.27,211.18Zm0-7.42A3.21,3.21,0,1,0,99.48,207,3.21,3.21,0,0,0,96.27,203.76Z" fill="#231f20"></path><path d="M111.9,215.77H86.26a2.65,2.65,0,0,1-2.65-2.64,8.21,8.21,0,0,1,8.21-8.2s10.73-.47,16.21,2.74S114.65,215.77,111.9,215.77Z" fill="#fff"></path><path d="M111.9,216.27H86.26a3.15,3.15,0,0,1-3.15-3.14,8.71,8.71,0,0,1,8.71-8.7c.42,0,10.92-.43,16.47,2.8,4.08,2.39,6,5.79,5.47,7.7A1.78,1.78,0,0,1,111.9,216.27ZM93.2,205.4c-.83,0-1.34,0-1.36,0a7.7,7.7,0,0,0-7.73,7.7,2.15,2.15,0,0,0,2.15,2.14H111.9c.66,0,.82-.34.89-.6.36-1.32-1.18-4.34-5-6.57C103.63,205.67,96.24,205.4,93.2,205.4Z" fill="#231f20"></path><path d="M87.7,211.85a.39.39,0,0,1-.15,0,.5.5,0,0,1-.32-.63,12.38,12.38,0,0,1,5.7-6.72.5.5,0,0,1,.67.22.49.49,0,0,1-.22.67,11.59,11.59,0,0,0-5.2,6.14A.5.5,0,0,1,87.7,211.85Z" fill="#231f20"></path><path d="M95.82,216.27a.5.5,0,0,1-.32-.88s3.16-2.73,3.27-5.87a4.39,4.39,0,0,0-2-4.15.49.49,0,0,1-.22-.67.5.5,0,0,1,.67-.22,5.34,5.34,0,0,1,2.55,5.08c-.12,3.58-3.48,6.47-3.63,6.59A.49.49,0,0,1,95.82,216.27Z" fill="#231f20"></path><rect x="166.17" y="41.7" width="34.44" height="30.75" fill="#fff"></rect><path d="M200.61,73H166.17a.51.51,0,0,1-.5-.5V41.7a.51.51,0,0,1,.5-.5h34.44a.5.5,0,0,1,.5.5V72.45A.5.5,0,0,1,200.61,73Zm-33.94-1h33.44V42.2H166.67Z" fill="#d1d3d4"></path><path d="M177.3,63.4a.5.5,0,0,1-.33-.12L171,58a.53.53,0,0,1-.17-.35.47.47,0,0,1,.14-.37l6-6.33a.49.49,0,0,1,.7,0,.5.5,0,0,1,0,.71l-5.66,6,5.63,5a.5.5,0,0,1-.33.87Z" fill="#d1d3d4"></path><path d="M188.3,63.4a.52.52,0,0,1-.38-.17.5.5,0,0,1,0-.7l5.63-5-5.66-6a.5.5,0,0,1,.73-.69l6,6.33a.5.5,0,0,1,.13.37.48.48,0,0,1-.16.35l-6,5.32A.54.54,0,0,1,188.3,63.4Z" fill="#d1d3d4"></path><path d="M178.88,65.06a.49.49,0,0,1-.23-.06.51.51,0,0,1-.21-.68L185.94,50a.5.5,0,0,1,.67-.21.5.5,0,0,1,.21.68l-7.49,14.36A.51.51,0,0,1,178.88,65.06Z" fill="#d1d3d4"></path><path d="M200.61,46.34H166.17a.51.51,0,0,1-.5-.5.5.5,0,0,1,.5-.5h34.44a.5.5,0,0,1,.5.5A.5.5,0,0,1,200.61,46.34Z" fill="#d1d3d4"></path><rect x="273.31" y="51.06" width="55.93" height="51.87" fill="#fff"></rect><path d="M329.24,103.43H273.31a.5.5,0,0,1-.5-.5V51.06a.5.5,0,0,1,.5-.5h55.93a.5.5,0,0,1,.5.5v51.87A.5.5,0,0,1,329.24,103.43Zm-55.43-1h54.93V51.56H273.81Z" fill="#d1d3d4"></path><path d="M329.24,56.69H273.31a.5.5,0,0,1-.5-.5.5.5,0,0,1,.5-.5h55.93a.51.51,0,0,1,.5.5A.5.5,0,0,1,329.24,56.69Z" fill="#d1d3d4"></path><path d="M285,60.84h-6.83a.5.5,0,0,1-.5-.5.5.5,0,0,1,.5-.5H285a.5.5,0,0,1,.5.5A.5.5,0,0,1,285,60.84Z" fill="#d1d3d4"></path><path d="M302.27,60.84H288.64a.5.5,0,0,1-.5-.5.5.5,0,0,1,.5-.5h13.63a.5.5,0,0,1,.5.5A.5.5,0,0,1,302.27,60.84Z" fill="#d1d3d4"></path><path d="M306.37,65.46H292.74a.5.5,0,0,1-.5-.5.5.5,0,0,1,.5-.5h13.63a.5.5,0,0,1,.5.5A.5.5,0,0,1,306.37,65.46Z" fill="#d1d3d4"></path><path d="M286.64,65.46h-6.83a.51.51,0,0,1-.5-.5.5.5,0,0,1,.5-.5h6.83a.5.5,0,0,1,.5.5A.5.5,0,0,1,286.64,65.46Z" fill="#d1d3d4"></path><path d="M286.9,70.07h-5.48a.5.5,0,0,1-.5-.5.5.5,0,0,1,.5-.5h5.48a.5.5,0,0,1,.5.5A.5.5,0,0,1,286.9,70.07Z" fill="#d1d3d4"></path><path d="M308.81,70.07H291.75a.5.5,0,0,1-.5-.5.5.5,0,0,1,.5-.5h17.06a.5.5,0,0,1,.5.5A.5.5,0,0,1,308.81,70.07Z" fill="#d1d3d4"></path><path d="M289.85,74.69H283a.5.5,0,0,1-.5-.5.5.5,0,0,1,.5-.5h6.83a.5.5,0,0,1,.5.5A.5.5,0,0,1,289.85,74.69Z" fill="#d1d3d4"></path><path d="M312.34,74.69H292.05a.51.51,0,0,1-.5-.5.5.5,0,0,1,.5-.5h20.29a.5.5,0,0,1,.5.5A.5.5,0,0,1,312.34,74.69Z" fill="#d1d3d4"></path><path d="M288,79.31h-6.83a.5.5,0,0,1-.5-.5.5.5,0,0,1,.5-.5H288a.5.5,0,0,1,.5.5A.5.5,0,0,1,288,79.31Z" fill="#d1d3d4"></path><path d="M301.66,79.31h-11a.5.5,0,0,1-.5-.5.5.5,0,0,1,.5-.5h11a.5.5,0,0,1,.5.5A.51.51,0,0,1,301.66,79.31Z" fill="#d1d3d4"></path><path d="M316.86,79.31h-11a.5.5,0,0,1-.5-.5.5.5,0,0,1,.5-.5h11a.5.5,0,0,1,.5.5A.5.5,0,0,1,316.86,79.31Z" fill="#d1d3d4"></path><path d="M283.56,83.92h-2.35a.5.5,0,0,1-.5-.5.5.5,0,0,1,.5-.5h2.35a.5.5,0,0,1,.5.5A.5.5,0,0,1,283.56,83.92Z" fill="#d1d3d4"></path><path d="M301.66,83.92H287.57a.5.5,0,0,1-.5-.5.51.51,0,0,1,.5-.5h14.09a.51.51,0,0,1,.5.5A.5.5,0,0,1,301.66,83.92Z" fill="#d1d3d4"></path><path d="M307.21,83.92h-3.93a.5.5,0,0,1-.5-.5.5.5,0,0,1,.5-.5h3.93a.51.51,0,0,1,.5.5A.5.5,0,0,1,307.21,83.92Z" fill="#d1d3d4"></path><path d="M284.9,88.54h-3.69a.5.5,0,0,1,0-1h3.69a.5.5,0,0,1,0,1Z" fill="#d1d3d4"></path><path d="M305.11,88.54H288.39a.5.5,0,0,1,0-1h16.72a.5.5,0,0,1,0,1Z" fill="#d1d3d4"></path><path d="M313.59,88.54h-6.83a.5.5,0,0,1,0-1h6.83a.5.5,0,0,1,0,1Z" fill="#d1d3d4"></path><path d="M283.23,93.16H279.6a.51.51,0,0,1-.5-.5.5.5,0,0,1,.5-.5h3.63a.5.5,0,0,1,.5.5A.51.51,0,0,1,283.23,93.16Z" fill="#d1d3d4"></path><path d="M303.28,93.16H287.45a.5.5,0,0,1-.5-.5.5.5,0,0,1,.5-.5h15.83a.5.5,0,0,1,.5.5A.51.51,0,0,1,303.28,93.16Z" fill="#d1d3d4"></path><path d="M286.43,97.77H279.6a.5.5,0,0,1-.5-.5.51.51,0,0,1,.5-.5h6.83a.5.5,0,0,1,.5.5A.5.5,0,0,1,286.43,97.77Z" fill="#d1d3d4"></path><path d="M324.34,74.69H315.1a.5.5,0,0,1-.5-.5.5.5,0,0,1,.5-.5h9.24a.5.5,0,0,1,.5.5A.51.51,0,0,1,324.34,74.69Z" fill="#d1d3d4"></path><path d="M310.51,60.86c-4.63,0-4.72,0-4.78,0a.5.5,0,0,1-.35-.61.49.49,0,0,1,.55-.37c.54,0,9.48,0,15.39,0a.53.53,0,0,1,.5.5.5.5,0,0,1-.5.5C316.23,60.86,312.81,60.86,310.51,60.86Z" fill="#d1d3d4"></path><path d="M312,93.16h-6.91a.5.5,0,0,1-.5-.5.5.5,0,0,1,.5-.5H312a.5.5,0,0,1,.5.5A.5.5,0,0,1,312,93.16Z" fill="#d1d3d4"></path><path d="M296.16,97.77h-5.09a.5.5,0,0,1-.5-.5.51.51,0,0,1,.5-.5h5.09a.51.51,0,0,1,.5.5A.5.5,0,0,1,296.16,97.77Z" fill="#d1d3d4"></path><path d="M310.17,97.77H298.09a.5.5,0,0,1-.5-.5.5.5,0,0,1,.5-.5h12.08a.5.5,0,0,1,.5.5A.5.5,0,0,1,310.17,97.77Z" fill="#d1d3d4"></path></g></svg>